<?xml version="1.0" encoding="utf-8"?>
<!-- Generator: Adobe Illustrator 23.0.2, SVG Export Plug-In . SVG Version: 6.00 Build 0)  -->
<svg version="1.1" id="Layer_1" xmlns="http://www.w3.org/2000/svg" xmlns:xlink="http://www.w3.org/1999/xlink" x="0px" y="0px"
	 viewBox="0 0 494 433" style="enable-background:new 0 0 494 433;" xml:space="preserve">
<style type="text/css">
	.st0{fill:#FFFFFF;}
	.st1{clip-path:url(#SVGID_2_);}
	.st2{opacity:0.84;}
	.st3{fill-opacity:0.4;}
	.st4{fill:url(#SVGID_3_);fill-opacity:0.1;}
	.st5{fill:none;stroke:url(#SVGID_4_);stroke-width:0.8549;stroke-opacity:0.16;}
	.st6{fill:none;stroke:url(#SVGID_5_);stroke-width:0.8549;stroke-opacity:0.3;}
	.st7{opacity:0.2;fill:#FFFFFF;fill-opacity:0.5;enable-background:new    ;}
	.st8{opacity:0.7;}
	.st9{fill-rule:evenodd;clip-rule:evenodd;filter:url(#Adobe_OpacityMaskFilter);}
	.st10{mask:url(#mask0_5999_2251_1_);}
	.st11{fill:#93BC63;}
	.st12{fill:url(#SVGID_6_);fill-opacity:0.1;}
	.st13{fill:none;stroke:url(#SVGID_7_);stroke-width:0.8549;stroke-opacity:0.16;}
	.st14{fill:none;stroke:url(#SVGID_8_);stroke-width:0.8549;stroke-opacity:0.3;}
	.st15{fill:#FFFFFF;fill-opacity:1.000000e-02;}
	.st16{fill:#FFFFFF;fill-opacity:7.000000e-02;}
	.st17{clip-path:url(#SVGID_10_);}
	.st18{fill:url(#SVGID_11_);fill-opacity:0.12;}
	.st19{fill:url(#SVGID_12_);fill-opacity:3.000000e-02;}
	.st20{fill:none;stroke:#DADADA;stroke-width:0.5624;}
	.st21{fill:url(#SVGID_13_);}
	.st22{fill:url(#SVGID_14_);}
	.st23{fill:url(#SVGID_15_);}
	.st24{fill:#05514D;}
	.st25{fill:#29817C;}
	.st26{fill:#9AB17F;}
	.st27{fill:none;stroke:url(#SVGID_16_);stroke-width:0.5513;stroke-opacity:8.000000e-02;}
	.st28{fill:none;stroke:url(#SVGID_17_);stroke-width:0.9272;stroke-opacity:0.5;}
	.st29{fill:none;stroke:url(#SVGID_18_);stroke-width:0.9272;stroke-opacity:0.3;}
</style>
<path class="st0" d="M20.8,0h452.5C484.7,0,494,6.9,494,15.4v402.2c0,8.5-9.3,15.4-20.8,15.4H20.8C9.3,433,0,426.1,0,417.6V15.4
	C0,6.9,9.3,0,20.8,0z"/>
<g>
	<defs>
		<rect id="SVGID_1_" x="69" y="7" width="355.4" height="398.5"/>
	</defs>
	<clipPath id="SVGID_2_">
		<use xlink:href="#SVGID_1_"  style="overflow:visible;"/>
	</clipPath>
	<g class="st1">
		<g class="st2">
			<path class="st3" d="M132.4,36.3h237c6.5,0,11.7,5.2,11.7,11.7v68.3c0,6.5-5.2,11.7-11.7,11.7h-237c-6.5,0-11.7-5.2-11.7-11.7V48
				C120.7,41.5,125.9,36.3,132.4,36.3z"/>
			
				<linearGradient id="SVGID_3_" gradientUnits="userSpaceOnUse" x1="250.877" y1="375.744" x2="250.877" y2="284.0732" gradientTransform="matrix(1 0 0 -1 0 412)">
				<stop  offset="0" style="stop-color:#FFFFFF"/>
				<stop  offset="1" style="stop-color:#FFFFFF;stop-opacity:0.75"/>
			</linearGradient>
			<path class="st4" d="M132.4,36.3h237c6.5,0,11.7,5.2,11.7,11.7v68.3c0,6.5-5.2,11.7-11.7,11.7h-237c-6.5,0-11.7-5.2-11.7-11.7V48
				C120.7,41.5,125.9,36.3,132.4,36.3z"/>
			
				<linearGradient id="SVGID_4_" gradientUnits="userSpaceOnUse" x1="250.8765" y1="375.7435" x2="250.8765" y2="284.0726" gradientTransform="matrix(1 0 0 -1 0 412)">
				<stop  offset="0" style="stop-color:#FFFFFF"/>
				<stop  offset="1" style="stop-color:#FFFFFF;stop-opacity:0"/>
			</linearGradient>
			<path class="st5" d="M132.4,36.7h237c6.2,0,11.3,5,11.3,11.3v68.3c0,6.2-5,11.3-11.3,11.3h-237c-6.2,0-11.3-5-11.3-11.3V48
				C121.1,41.7,126.2,36.7,132.4,36.7z"/>
			
				<radialGradient id="SVGID_5_" cx="4.5199" cy="330.9825" r="1" gradientTransform="matrix(1.568399e-15 -25.6139 -113.866 -6.972282e-15 37938.5234 243.6992)" gradientUnits="userSpaceOnUse">
				<stop  offset="0" style="stop-color:#C4B86F"/>
				<stop  offset="1" style="stop-color:#C4B86F;stop-opacity:0"/>
			</radialGradient>
			<path class="st6" d="M132.4,36.7h237c6.2,0,11.3,5,11.3,11.3v68.3c0,6.2-5,11.3-11.3,11.3h-237c-6.2,0-11.3-5-11.3-11.3V48
				C121.1,41.7,126.2,36.7,132.4,36.7z"/>
			<path class="st7" d="M161.6,102.6h168.7c2.2,0,3.9,1.7,3.9,3.9v0c0,2.2-1.7,3.9-3.9,3.9H161.6c-2.2,0-3.9-1.7-3.9-3.9v0
				C157.7,104.3,159.5,102.6,161.6,102.6z"/>
			<g class="st8">
				<defs>
					<filter id="Adobe_OpacityMaskFilter" filterUnits="userSpaceOnUse" x="140.2" y="100.6" width="11.7" height="11.7">
						<feColorMatrix  type="matrix" values="1 0 0 0 0  0 1 0 0 0  0 0 1 0 0  0 0 0 1 0"/>
					</filter>
				</defs>
				<mask maskUnits="userSpaceOnUse" x="140.2" y="100.6" width="11.7" height="11.7" id="mask0_5999_2251_1_">
					<path class="st9" d="M141.2,106.5c0-2.7,2.2-4.9,4.9-4.9c2.7,0,4.9,2.2,4.9,4.9c0,2.7-2.2,4.9-4.9,4.9
						C143.4,111.3,141.2,109.2,141.2,106.5z M146.5,107h1.5c0.3,0,0.5-0.2,0.5-0.5c0-0.3-0.2-0.5-0.5-0.5h-1.5v-1.5
						c0-0.3-0.2-0.5-0.5-0.5c-0.3,0-0.5,0.2-0.5,0.5v1.5h-1.5c-0.3,0-0.5,0.2-0.5,0.5c0,0.3,0.2,0.5,0.5,0.5h1.5v1.5
						c0,0.3,0.2,0.5,0.5,0.5c0.3,0,0.5-0.2,0.5-0.5V107z"/>
				</mask>
				<g class="st10">
					<rect x="140.2" y="100.6" class="st11" width="11.7" height="11.7"/>
				</g>
			</g>
		</g>
		<g class="st2">
			<path class="st3" d="M132.4,305.4h237c6.5,0,11.7,5.2,11.7,11.7v68.3c0,6.5-5.2,11.7-11.7,11.7h-237c-6.5,0-11.7-5.2-11.7-11.7
				v-68.3C120.7,310.7,125.9,305.4,132.4,305.4z"/>
			
				<linearGradient id="SVGID_6_" gradientUnits="userSpaceOnUse" x1="250.877" y1="106.582" x2="250.877" y2="14.9112" gradientTransform="matrix(1 0 0 -1 0 412)">
				<stop  offset="0" style="stop-color:#FFFFFF"/>
				<stop  offset="1" style="stop-color:#FFFFFF;stop-opacity:0.75"/>
			</linearGradient>
			<path class="st12" d="M132.4,305.4h237c6.5,0,11.7,5.2,11.7,11.7v68.3c0,6.5-5.2,11.7-11.7,11.7h-237c-6.5,0-11.7-5.2-11.7-11.7
				v-68.3C120.7,310.7,125.9,305.4,132.4,305.4z"/>
			
				<linearGradient id="SVGID_7_" gradientUnits="userSpaceOnUse" x1="250.8765" y1="106.5825" x2="250.8765" y2="14.9116" gradientTransform="matrix(1 0 0 -1 0 412)">
				<stop  offset="0" style="stop-color:#FFFFFF"/>
				<stop  offset="1" style="stop-color:#FFFFFF;stop-opacity:0"/>
			</linearGradient>
			<path class="st13" d="M132.4,305.8h237c6.2,0,11.3,5,11.3,11.3v68.3c0,6.2-5,11.3-11.3,11.3h-237c-6.2,0-11.3-5-11.3-11.3v-68.3
				C121.1,310.9,126.2,305.8,132.4,305.8z"/>
			
				<radialGradient id="SVGID_8_" cx="4.5199" cy="330.9825" r="1" gradientTransform="matrix(1.568399e-15 -25.6139 -113.866 -6.972282e-15 37938.5234 512.8612)" gradientUnits="userSpaceOnUse">
				<stop  offset="0" style="stop-color:#C4B86F"/>
				<stop  offset="1" style="stop-color:#C4B86F;stop-opacity:0"/>
			</radialGradient>
			<path class="st14" d="M132.4,305.8h237c6.2,0,11.3,5,11.3,11.3v68.3c0,6.2-5,11.3-11.3,11.3h-237c-6.2,0-11.3-5-11.3-11.3v-68.3
				C121.1,310.9,126.2,305.8,132.4,305.8z"/>
			<path class="st7" d="M144.1,373.7h168.7c2.2,0,3.9,1.7,3.9,3.9l0,0c0,2.2-1.7,3.9-3.9,3.9H144.1c-2.2,0-3.9-1.7-3.9-3.9l0,0
				C140.2,375.4,141.9,373.7,144.1,373.7z"/>
		</g>
		<g>
			<path class="st15" d="M400.7,380.5c0,13.4-10.9,24.2-24.2,24.2H117.8c-13.4,0-24.2-10.9-24.2-24.2V45.1
				c0-13.4,10.9-24.2,24.2-24.2h258.6c13.4,0,24.2,10.9,24.2,24.2V380.5z"/>
			<path class="st16" d="M400.7,380.5c0,13.4-10.9,24.2-24.2,24.2H117.8c-13.4,0-24.2-10.9-24.2-24.2V45.1
				c0-13.4,10.9-24.2,24.2-24.2h258.6c13.4,0,24.2,10.9,24.2,24.2V380.5z"/>
		</g>
		<g>
			<g>
				<defs>
					<path id="SVGID_9_" d="M121.3,57.9h251.6c8.6,0,15.6,7,15.6,15.6v265.3c0,8.6-7,15.6-15.6,15.6H121.3c-8.6,0-15.6-7-15.6-15.6
						V73.5C105.7,64.9,112.7,57.9,121.3,57.9z"/>
				</defs>
				<clipPath id="SVGID_10_">
					<use xlink:href="#SVGID_9_"  style="overflow:visible;"/>
				</clipPath>
				<g class="st17">
					<path class="st0" d="M121.3,57.9h251.6c8.6,0,15.6,7,15.6,15.6v265.3c0,8.6-7,15.6-15.6,15.6H121.3c-8.6,0-15.6-7-15.6-15.6
						V73.5C105.7,64.9,112.7,57.9,121.3,57.9z"/>
					
						<linearGradient id="SVGID_11_" gradientUnits="userSpaceOnUse" x1="247.092" y1="354.129" x2="247.092" y2="57.662" gradientTransform="matrix(1 0 0 -1 0 412)">
						<stop  offset="0" style="stop-color:#FFFFFF"/>
						<stop  offset="1" style="stop-color:#FFFFFF;stop-opacity:0.75"/>
					</linearGradient>
					<path class="st18" d="M121.3,57.9h251.6c8.6,0,15.6,7,15.6,15.6v265.3c0,8.6-7,15.6-15.6,15.6H121.3c-8.6,0-15.6-7-15.6-15.6
						V73.5C105.7,64.9,112.7,57.9,121.3,57.9z"/>
					
						<radialGradient id="SVGID_12_" cx="-0.6041" cy="330.9898" r="1" gradientTransform="matrix(7.325348e-15 -119.632 -196.664 -1.204220e-14 65340.4492 138.241)" gradientUnits="userSpaceOnUse">
						<stop  offset="0" style="stop-color:#FFFFFF"/>
						<stop  offset="1" style="stop-color:#FFFFFF;stop-opacity:0"/>
					</radialGradient>
					<path class="st19" d="M121.3,57.9h251.6c8.6,0,15.6,7,15.6,15.6v265.3c0,8.6-7,15.6-15.6,15.6H121.3c-8.6,0-15.6-7-15.6-15.6
						V73.5C105.7,64.9,112.7,57.9,121.3,57.9z"/>
					<path d="M134.4,85.4l-3.6,6.9v3.9H129v-3.9l-3.6-6.9h2l2.5,5.3l2.5-5.3H134.4z M139.4,96.4c-0.8,0-1.5-0.2-2.2-0.5
						c-0.7-0.4-1.2-0.9-1.5-1.6c-0.4-0.7-0.6-1.5-0.6-2.3c0-0.9,0.2-1.6,0.6-2.3c0.4-0.7,0.9-1.2,1.6-1.6s1.4-0.5,2.2-0.5
						c0.8,0,1.6,0.2,2.2,0.5c0.7,0.4,1.2,0.9,1.6,1.6c0.4,0.7,0.6,1.5,0.6,2.3c0,0.9-0.2,1.6-0.6,2.3c-0.4,0.7-0.9,1.2-1.6,1.6
						C141,96.2,140.2,96.4,139.4,96.4z M139.4,94.9c0.5,0,0.9-0.1,1.3-0.3c0.4-0.2,0.7-0.5,1-1c0.3-0.4,0.4-1,0.4-1.6
						c0-0.6-0.1-1.1-0.4-1.6c-0.2-0.4-0.6-0.8-1-1c-0.4-0.2-0.8-0.3-1.3-0.3c-0.5,0-0.9,0.1-1.3,0.3c-0.4,0.2-0.7,0.5-0.9,1
						c-0.2,0.4-0.3,1-0.3,1.6c0,0.9,0.2,1.6,0.7,2.2C138.1,94.6,138.7,94.9,139.4,94.9z M153.2,87.7v8.6h-1.8v-1
						c-0.3,0.4-0.7,0.6-1.1,0.8c-0.4,0.2-0.9,0.3-1.4,0.3c-0.7,0-1.3-0.1-1.8-0.4c-0.5-0.3-1-0.7-1.3-1.2c-0.3-0.6-0.5-1.2-0.5-2
						v-5.1h1.8v4.8c0,0.8,0.2,1.4,0.6,1.8c0.4,0.4,0.9,0.6,1.6,0.6s1.2-0.2,1.6-0.6c0.4-0.4,0.6-1,0.6-1.8v-4.8H153.2z M157.2,88.9
						c0.3-0.4,0.6-0.8,1-1c0.4-0.2,1-0.4,1.5-0.4v1.8h-0.5c-0.7,0-1.2,0.2-1.6,0.5c-0.4,0.4-0.5,1-0.5,1.8v4.5h-1.8v-8.6h1.8V88.9z
						 M166.9,88.9c0.3-0.4,0.6-0.8,1-1c0.4-0.2,1-0.4,1.5-0.4v1.8h-0.5c-0.7,0-1.2,0.2-1.6,0.5c-0.4,0.4-0.5,1-0.5,1.8v4.5h-1.8
						v-8.6h1.8V88.9z M178.9,91.8c0,0.3,0,0.6-0.1,0.9h-6.6c0.1,0.7,0.3,1.2,0.8,1.7c0.5,0.4,1,0.6,1.7,0.6c1,0,1.6-0.4,2-1.2h1.9
						c-0.3,0.8-0.7,1.4-1.4,2c-0.7,0.5-1.5,0.7-2.5,0.7c-0.8,0-1.6-0.2-2.2-0.5c-0.6-0.4-1.2-0.9-1.5-1.6c-0.4-0.7-0.5-1.5-0.5-2.3
						c0-0.9,0.2-1.7,0.5-2.3c0.4-0.7,0.9-1.2,1.5-1.6c0.7-0.4,1.4-0.5,2.2-0.5c0.8,0,1.5,0.2,2.2,0.5c0.6,0.4,1.1,0.9,1.5,1.5
						C178.7,90.2,178.9,90.9,178.9,91.8z M177,91.2c0-0.7-0.2-1.2-0.7-1.6c-0.5-0.4-1-0.6-1.7-0.6c-0.6,0-1.1,0.2-1.6,0.6
						c-0.4,0.4-0.7,0.9-0.8,1.6H177z M179.9,92c0-0.9,0.2-1.7,0.5-2.3c0.4-0.7,0.9-1.2,1.5-1.6c0.6-0.4,1.4-0.5,2.2-0.5
						c1,0,1.9,0.3,2.6,0.7c0.7,0.5,1.1,1.2,1.4,2.1h-1.9c-0.2-0.4-0.4-0.8-0.7-1c-0.3-0.2-0.8-0.4-1.3-0.4c-0.7,0-1.3,0.3-1.7,0.8
						c-0.4,0.5-0.6,1.2-0.6,2.2c0,0.9,0.2,1.6,0.6,2.2c0.4,0.5,1,0.8,1.7,0.8c1,0,1.7-0.5,2-1.4h1.9c-0.2,0.9-0.7,1.6-1.4,2.1
						c-0.7,0.5-1.5,0.8-2.6,0.8c-0.8,0-1.5-0.2-2.2-0.5c-0.6-0.4-1.1-0.9-1.5-1.6C180,93.6,179.9,92.9,179.9,92z M193.4,96.4
						c-0.8,0-1.5-0.2-2.2-0.5c-0.7-0.4-1.2-0.9-1.5-1.6c-0.4-0.7-0.6-1.5-0.6-2.3c0-0.9,0.2-1.6,0.6-2.3c0.4-0.7,0.9-1.2,1.6-1.6
						s1.4-0.5,2.2-0.5c0.8,0,1.6,0.2,2.2,0.5c0.7,0.4,1.2,0.9,1.6,1.6c0.4,0.7,0.6,1.5,0.6,2.3c0,0.9-0.2,1.6-0.6,2.3
						c-0.4,0.7-0.9,1.2-1.6,1.6C195,96.2,194.2,96.4,193.4,96.4z M193.4,94.9c0.5,0,0.9-0.1,1.3-0.3c0.4-0.2,0.7-0.5,1-1
						c0.2-0.4,0.4-1,0.4-1.6c0-0.6-0.1-1.1-0.4-1.6c-0.2-0.4-0.6-0.8-1-1c-0.4-0.2-0.8-0.3-1.3-0.3c-0.5,0-0.9,0.1-1.3,0.3
						c-0.4,0.2-0.7,0.5-0.9,1c-0.2,0.4-0.3,1-0.3,1.6c0,0.9,0.2,1.6,0.7,2.2C192.1,94.6,192.7,94.9,193.4,94.9z M209.9,87.5
						c0.7,0,1.3,0.1,1.8,0.4c0.5,0.3,1,0.7,1.3,1.2c0.3,0.6,0.5,1.2,0.5,2v5.1h-1.8v-4.8c0-0.8-0.2-1.4-0.6-1.8
						c-0.4-0.4-0.9-0.6-1.6-0.6c-0.7,0-1.2,0.2-1.6,0.6c-0.4,0.4-0.6,1-0.6,1.8v4.8h-1.8v-4.8c0-0.8-0.2-1.4-0.6-1.8
						c-0.4-0.4-0.9-0.6-1.6-0.6s-1.2,0.2-1.6,0.6c-0.4,0.4-0.6,1-0.6,1.8v4.8h-1.8v-8.6h1.8v1c0.3-0.4,0.7-0.6,1.1-0.8
						c0.4-0.2,0.9-0.3,1.4-0.3c0.7,0,1.3,0.1,1.8,0.4c0.5,0.3,1,0.7,1.2,1.3c0.3-0.5,0.7-0.9,1.2-1.2
						C208.6,87.7,209.2,87.5,209.9,87.5z M225.9,87.5c0.7,0,1.3,0.1,1.8,0.4c0.5,0.3,1,0.7,1.3,1.2c0.3,0.6,0.5,1.2,0.5,2v5.1h-1.8
						v-4.8c0-0.8-0.2-1.4-0.6-1.8c-0.4-0.4-0.9-0.6-1.6-0.6c-0.7,0-1.2,0.2-1.6,0.6c-0.4,0.4-0.6,1-0.6,1.8v4.8h-1.8v-4.8
						c0-0.8-0.2-1.4-0.6-1.8c-0.4-0.4-0.9-0.6-1.6-0.6c-0.7,0-1.2,0.2-1.6,0.6c-0.4,0.4-0.6,1-0.6,1.8v4.8h-1.8v-8.6h1.8v1
						c0.3-0.4,0.7-0.6,1.1-0.8c0.4-0.2,0.9-0.3,1.4-0.3c0.7,0,1.3,0.1,1.8,0.4s1,0.7,1.2,1.3c0.3-0.5,0.7-0.9,1.2-1.2
						C224.7,87.7,225.3,87.5,225.9,87.5z M239.4,91.8c0,0.3,0,0.6-0.1,0.9h-6.6c0.1,0.7,0.3,1.2,0.8,1.7c0.5,0.4,1,0.6,1.7,0.6
						c1,0,1.6-0.4,2-1.2h1.9c-0.3,0.8-0.7,1.4-1.4,2c-0.7,0.5-1.5,0.7-2.5,0.7c-0.8,0-1.6-0.2-2.2-0.5c-0.6-0.4-1.2-0.9-1.5-1.6
						c-0.4-0.7-0.5-1.5-0.5-2.3c0-0.9,0.2-1.7,0.5-2.3c0.4-0.7,0.9-1.2,1.5-1.6c0.7-0.4,1.4-0.5,2.2-0.5c0.8,0,1.5,0.2,2.2,0.5
						c0.6,0.4,1.1,0.9,1.5,1.5C239.3,90.2,239.4,90.9,239.4,91.8z M237.6,91.2c0-0.7-0.2-1.2-0.7-1.6c-0.5-0.4-1-0.6-1.7-0.6
						c-0.6,0-1.1,0.2-1.6,0.6c-0.4,0.4-0.7,0.9-0.8,1.6H237.6z M245.4,87.5c0.7,0,1.3,0.1,1.8,0.4c0.5,0.3,1,0.7,1.3,1.2
						c0.3,0.6,0.5,1.2,0.5,2v5.1h-1.8v-4.8c0-0.8-0.2-1.4-0.6-1.8c-0.4-0.4-0.9-0.6-1.6-0.6s-1.2,0.2-1.6,0.6
						c-0.4,0.4-0.6,1-0.6,1.8v4.8H241v-8.6h1.8v1c0.3-0.4,0.7-0.6,1.1-0.8C244.4,87.6,244.9,87.5,245.4,87.5z M250.4,91.9
						c0-0.9,0.2-1.6,0.5-2.3c0.4-0.7,0.9-1.2,1.5-1.5c0.6-0.4,1.3-0.6,2.1-0.6c0.6,0,1.1,0.1,1.7,0.4c0.6,0.2,1,0.6,1.3,1v-4.2h1.8
						v11.5h-1.8V95c-0.3,0.4-0.7,0.8-1.2,1c-0.5,0.3-1.1,0.4-1.8,0.4c-0.7,0-1.4-0.2-2.1-0.6c-0.6-0.4-1.1-0.9-1.5-1.6
						C250.6,93.6,250.4,92.8,250.4,91.9z M257.5,92c0-0.6-0.1-1.1-0.4-1.5c-0.2-0.4-0.6-0.8-1-1c-0.4-0.2-0.8-0.3-1.3-0.3
						c-0.5,0-0.9,0.1-1.3,0.3c-0.4,0.2-0.7,0.5-1,1c-0.2,0.4-0.4,0.9-0.4,1.5s0.1,1.1,0.4,1.6c0.3,0.4,0.6,0.8,1,1
						c0.4,0.2,0.8,0.3,1.3,0.3c0.5,0,0.9-0.1,1.3-0.3c0.4-0.2,0.7-0.6,1-1C257.3,93.1,257.5,92.6,257.5,92z M269.3,91.8
						c0,0.3,0,0.6-0.1,0.9h-6.6c0.1,0.7,0.3,1.2,0.8,1.7c0.5,0.4,1,0.6,1.7,0.6c1,0,1.6-0.4,2-1.2h1.9c-0.3,0.8-0.7,1.4-1.4,2
						c-0.7,0.5-1.5,0.7-2.5,0.7c-0.8,0-1.6-0.2-2.2-0.5c-0.6-0.4-1.2-0.9-1.5-1.6c-0.4-0.7-0.5-1.5-0.5-2.3c0-0.9,0.2-1.7,0.5-2.3
						c0.4-0.7,0.9-1.2,1.5-1.6c0.7-0.4,1.4-0.5,2.2-0.5c0.8,0,1.5,0.2,2.2,0.5c0.6,0.4,1.1,0.9,1.5,1.5
						C269.1,90.2,269.3,90.9,269.3,91.8z M267.5,91.2c0-0.7-0.2-1.2-0.7-1.6c-0.5-0.4-1-0.6-1.7-0.6c-0.6,0-1.1,0.2-1.6,0.6
						c-0.4,0.4-0.7,0.9-0.8,1.6H267.5z M270.3,91.9c0-0.9,0.2-1.6,0.5-2.3c0.4-0.7,0.9-1.2,1.5-1.5c0.6-0.4,1.3-0.6,2.1-0.6
						c0.6,0,1.1,0.1,1.7,0.4c0.6,0.2,1,0.6,1.3,1v-4.2h1.8v11.5h-1.8V95c-0.3,0.4-0.7,0.8-1.2,1c-0.5,0.3-1.1,0.4-1.8,0.4
						c-0.7,0-1.4-0.2-2.1-0.6c-0.6-0.4-1.1-0.9-1.5-1.6C270.5,93.6,270.3,92.8,270.3,91.9z M277.4,92c0-0.6-0.1-1.1-0.4-1.5
						c-0.2-0.4-0.6-0.8-1-1c-0.4-0.2-0.8-0.3-1.3-0.3c-0.5,0-0.9,0.1-1.3,0.3c-0.4,0.2-0.7,0.5-1,1c-0.2,0.4-0.4,0.9-0.4,1.5
						s0.1,1.1,0.4,1.6c0.3,0.4,0.6,0.8,1,1c0.4,0.2,0.8,0.3,1.3,0.3c0.5,0,0.9-0.1,1.3-0.3s0.7-0.6,1-1
						C277.2,93.1,277.4,92.6,277.4,92z M287,88.9c0.3-0.4,0.7-0.7,1.2-1c0.5-0.3,1.1-0.4,1.8-0.4c0.7,0,1.4,0.2,2,0.6
						c0.6,0.4,1.1,0.9,1.5,1.5c0.4,0.7,0.5,1.4,0.5,2.3c0,0.9-0.2,1.6-0.5,2.3c-0.4,0.7-0.8,1.2-1.5,1.6c-0.6,0.4-1.3,0.6-2,0.6
						c-0.7,0-1.2-0.1-1.7-0.4c-0.5-0.3-0.9-0.6-1.2-1v5.3h-1.8V87.7h1.8V88.9z M292.2,91.9c0-0.6-0.1-1.1-0.4-1.5
						c-0.2-0.4-0.6-0.8-1-1c-0.4-0.2-0.8-0.3-1.3-0.3c-0.4,0-0.9,0.1-1.3,0.3c-0.4,0.2-0.7,0.6-1,1c-0.2,0.4-0.4,1-0.4,1.5
						c0,0.6,0.1,1.1,0.4,1.6c0.2,0.4,0.6,0.8,1,1c0.4,0.2,0.8,0.3,1.3,0.3c0.5,0,0.9-0.1,1.3-0.3c0.4-0.2,0.7-0.6,1-1
						C292.1,93.1,292.2,92.5,292.2,91.9z M297.4,84.7v11.5h-1.8V84.7H297.4z M299,91.9c0-0.9,0.2-1.6,0.5-2.3
						c0.4-0.7,0.9-1.2,1.5-1.5c0.6-0.4,1.3-0.6,2.1-0.6c0.7,0,1.3,0.1,1.8,0.4c0.5,0.3,0.9,0.6,1.2,1v-1.2h1.8v8.6H306V95
						c-0.3,0.4-0.7,0.7-1.2,1c-0.5,0.3-1.1,0.4-1.8,0.4c-0.7,0-1.4-0.2-2-0.6c-0.6-0.4-1.1-0.9-1.5-1.6
						C299.2,93.6,299,92.8,299,91.9z M306,92c0-0.6-0.1-1.1-0.4-1.5c-0.2-0.4-0.6-0.8-1-1c-0.4-0.2-0.8-0.3-1.3-0.3
						s-0.9,0.1-1.3,0.3c-0.4,0.2-0.7,0.5-1,1c-0.2,0.4-0.4,0.9-0.4,1.5s0.1,1.1,0.4,1.6c0.3,0.4,0.6,0.8,1,1
						c0.4,0.2,0.8,0.3,1.3,0.3c0.5,0,0.9-0.1,1.3-0.3c0.4-0.2,0.7-0.6,1-1C305.9,93.1,306,92.6,306,92z M314.4,87.5
						c0.7,0,1.3,0.1,1.8,0.4c0.5,0.3,1,0.7,1.3,1.2c0.3,0.6,0.5,1.2,0.5,2v5.1h-1.8v-4.8c0-0.8-0.2-1.4-0.6-1.8
						c-0.4-0.4-0.9-0.6-1.6-0.6c-0.7,0-1.2,0.2-1.6,0.6c-0.4,0.4-0.6,1-0.6,1.8v4.8H310v-8.6h1.8v1c0.3-0.4,0.7-0.6,1.1-0.8
						C313.4,87.6,313.9,87.5,314.4,87.5z"/>
					<path class="st0" d="M136,116.7h109.4c5.8,0,10.6,4.7,10.6,10.6v3.9c0,5.8-4.7,10.6-10.6,10.6H136c-5.8,0-10.6-4.7-10.6-10.6
						v-3.9C125.5,121.4,130.2,116.7,136,116.7z"/>
					<path class="st20" d="M136,116.7h109.4c5.8,0,10.6,4.7,10.6,10.6v3.9c0,5.8-4.7,10.6-10.6,10.6H136c-5.8,0-10.6-4.7-10.6-10.6
						v-3.9C125.5,121.4,130.2,116.7,136,116.7z"/>
					<path d="M145.6,126.9c0-0.4-0.2-0.7-0.5-0.9c-0.3-0.2-0.7-0.3-1.2-0.3c-0.3,0-0.6,0.1-0.9,0.2c-0.2,0.1-0.4,0.3-0.6,0.5
						c-0.1,0.2-0.2,0.4-0.2,0.7c0,0.2,0,0.4,0.1,0.5c0.1,0.1,0.2,0.3,0.3,0.4c0.1,0.1,0.3,0.2,0.5,0.3c0.2,0.1,0.3,0.1,0.5,0.2
						l0.7,0.2c0.2,0.1,0.5,0.1,0.7,0.2c0.2,0.1,0.4,0.2,0.6,0.4c0.2,0.1,0.3,0.3,0.5,0.5c0.1,0.2,0.2,0.5,0.2,0.8
						c0,0.4-0.1,0.7-0.3,1c-0.2,0.3-0.5,0.5-0.8,0.7c-0.4,0.2-0.8,0.3-1.3,0.3c-0.5,0-0.9-0.1-1.3-0.2c-0.4-0.2-0.6-0.4-0.8-0.7
						s-0.3-0.6-0.3-1h0.7c0,0.3,0.1,0.5,0.3,0.7c0.2,0.2,0.4,0.3,0.6,0.4c0.3,0.1,0.5,0.1,0.9,0.1c0.4,0,0.7-0.1,0.9-0.2
						c0.3-0.1,0.5-0.3,0.7-0.5c0.2-0.2,0.2-0.5,0.2-0.7c0-0.2-0.1-0.4-0.2-0.6c-0.1-0.2-0.3-0.3-0.5-0.4c-0.2-0.1-0.5-0.2-0.8-0.3
						l-0.8-0.2c-0.6-0.2-1-0.4-1.3-0.7c-0.3-0.3-0.5-0.7-0.5-1.1c0-0.4,0.1-0.7,0.3-1c0.2-0.3,0.5-0.5,0.8-0.7
						c0.4-0.2,0.7-0.2,1.2-0.2c0.4,0,0.8,0.1,1.2,0.2c0.3,0.2,0.6,0.4,0.8,0.7c0.2,0.3,0.3,0.6,0.3,1H145.6z M147.6,125.7v-0.6h5.1
						v0.6h-2.2v6.5h-0.6v-6.5H147.6z M154.4,132.2v-7.1h2.3c0.5,0,0.9,0.1,1.3,0.3c0.3,0.2,0.6,0.4,0.8,0.8c0.2,0.3,0.3,0.7,0.3,1.1
						c0,0.4-0.1,0.8-0.3,1.1c-0.2,0.3-0.4,0.6-0.8,0.7c-0.3,0.2-0.8,0.3-1.3,0.3h-1.9v-0.6h1.9c0.4,0,0.7-0.1,0.9-0.2
						c0.2-0.1,0.4-0.3,0.6-0.5c0.1-0.2,0.2-0.5,0.2-0.8c0-0.3-0.1-0.6-0.2-0.8c-0.1-0.2-0.3-0.4-0.6-0.5c-0.2-0.1-0.6-0.2-0.9-0.2
						h-1.6v6.5H154.4z M157.6,129l1.7,3.2h-0.7l-1.7-3.2H157.6z M160.8,132.2h-0.7l2.6-7.1h0.7l2.6,7.1h-0.7l-2.2-6.3h0L160.8,132.2
						z M161.3,129.5h3.5v0.6h-3.5V129.5z M166.1,125.7v-0.6h5.1v0.6H169v6.5h-0.6v-6.5H166.1z M172.9,132.2v-7.1h4.1v0.6h-3.5v2.7
						h3.2v0.6h-3.2v2.7h3.5v0.6H172.9z M183.8,127.3c-0.1-0.2-0.2-0.5-0.3-0.7c-0.1-0.2-0.3-0.4-0.5-0.5c-0.2-0.2-0.4-0.3-0.6-0.4
						c-0.2-0.1-0.5-0.1-0.8-0.1c-0.5,0-0.9,0.1-1.2,0.4c-0.4,0.2-0.7,0.6-0.9,1c-0.2,0.5-0.3,1-0.3,1.6c0,0.6,0.1,1.2,0.3,1.6
						c0.2,0.5,0.5,0.8,0.9,1c0.4,0.2,0.8,0.4,1.3,0.4c0.4,0,0.8-0.1,1.2-0.3c0.3-0.2,0.6-0.5,0.8-0.8c0.2-0.4,0.3-0.8,0.3-1.3
						l0.2,0.1h-2.3v-0.6h2.7v0.6c0,0.6-0.1,1.1-0.4,1.6c-0.2,0.4-0.6,0.8-1,1c-0.4,0.2-0.9,0.4-1.5,0.4c-0.6,0-1.2-0.1-1.6-0.4
						c-0.5-0.3-0.8-0.7-1.1-1.3c-0.3-0.5-0.4-1.2-0.4-1.9c0-0.6,0.1-1.1,0.2-1.5c0.1-0.4,0.4-0.8,0.6-1.1c0.3-0.3,0.6-0.6,1-0.7
						c0.4-0.2,0.8-0.3,1.2-0.3c0.4,0,0.7,0.1,1.1,0.2c0.3,0.1,0.6,0.3,0.9,0.5c0.2,0.2,0.4,0.5,0.6,0.7c0.2,0.3,0.3,0.6,0.3,0.9
						H183.8z M185.4,125.1h0.7l2.1,3.4h0.1l2.1-3.4h0.7l-2.6,4v3.1H188v-3.1L185.4,125.1z M192.4,131.1c-0.1,0-0.3,0-0.4-0.1
						c-0.1-0.1-0.1-0.2-0.1-0.4c0-0.1,0-0.3,0.1-0.4c0.1-0.1,0.2-0.1,0.4-0.1c0.1,0,0.3,0,0.4,0.1s0.1,0.2,0.1,0.4
						c0,0.1,0,0.2-0.1,0.2c0,0.1-0.1,0.1-0.2,0.2C192.5,131.1,192.5,131.1,192.4,131.1z M192.4,127.5c-0.1,0-0.3,0-0.4-0.1
						c-0.1-0.1-0.1-0.2-0.1-0.4c0-0.1,0-0.3,0.1-0.3c0.1-0.1,0.2-0.1,0.4-0.1c0.1,0,0.3,0,0.4,0.1c0.1,0.1,0.1,0.2,0.1,0.3
						c0,0.1,0,0.2-0.1,0.3c0,0.1-0.1,0.1-0.2,0.2C192.5,127.5,192.5,127.5,192.4,127.5z"/>
					<path d="M201.2,127.4c-0.1-0.2-0.1-0.4-0.2-0.5c-0.1-0.2-0.2-0.3-0.4-0.4c-0.1-0.1-0.3-0.2-0.5-0.2c-0.2-0.1-0.4-0.1-0.6-0.1
						c-0.4,0-0.7,0.1-1,0.3c-0.3,0.2-0.5,0.5-0.7,0.8c-0.2,0.4-0.3,0.8-0.3,1.4c0,0.5,0.1,1,0.3,1.4c0.2,0.4,0.4,0.7,0.7,0.8
						c0.3,0.2,0.6,0.3,1,0.3c0.4,0,0.7-0.1,0.9-0.2c0.3-0.1,0.5-0.3,0.6-0.6c0.1-0.3,0.2-0.6,0.2-0.9l0.3,0h-1.9v-1h2.9v0.9
						c0,0.6-0.1,1.1-0.4,1.6c-0.3,0.4-0.6,0.8-1.1,1c-0.5,0.2-1,0.4-1.6,0.4c-0.7,0-1.2-0.1-1.7-0.4c-0.5-0.3-0.9-0.7-1.2-1.3
						c-0.3-0.5-0.4-1.2-0.4-1.9c0-0.6,0.1-1.1,0.2-1.5c0.2-0.4,0.4-0.8,0.7-1.1c0.3-0.3,0.6-0.6,1-0.7c0.4-0.2,0.8-0.2,1.3-0.2
						c0.4,0,0.8,0.1,1.1,0.2c0.3,0.1,0.6,0.3,0.9,0.5c0.3,0.2,0.5,0.5,0.7,0.7c0.2,0.3,0.3,0.6,0.3,1H201.2z M203.8,132.2v-7.1h2.7
						c0.5,0,1,0.1,1.4,0.3c0.4,0.2,0.7,0.5,0.8,0.8c0.2,0.3,0.3,0.7,0.3,1.2c0,0.5-0.1,0.9-0.3,1.2c-0.2,0.3-0.5,0.6-0.8,0.8
						c-0.4,0.2-0.8,0.3-1.4,0.3h-1.9v-1.1h1.7c0.3,0,0.6,0,0.8-0.1c0.2-0.1,0.4-0.2,0.4-0.4c0.1-0.2,0.1-0.4,0.1-0.6
						c0-0.3-0.1-0.5-0.1-0.6c-0.1-0.2-0.3-0.3-0.5-0.4c-0.2-0.1-0.5-0.1-0.8-0.1h-1.2v6H203.8z M207.5,129l1.8,3.2h-1.4l-1.7-3.2
						H207.5z M216.5,128.6c0,0.8-0.1,1.4-0.4,2c-0.3,0.5-0.7,1-1.2,1.2c-0.5,0.3-1,0.4-1.7,0.4c-0.6,0-1.2-0.1-1.7-0.4
						c-0.5-0.3-0.9-0.7-1.2-1.3c-0.3-0.5-0.4-1.2-0.4-2c0-0.8,0.1-1.4,0.4-2c0.3-0.5,0.7-1,1.2-1.3c0.5-0.3,1-0.4,1.7-0.4
						c0.6,0,1.2,0.1,1.7,0.4c0.5,0.3,0.9,0.7,1.2,1.3C216.3,127.2,216.5,127.9,216.5,128.6z M215.2,128.6c0-0.5-0.1-1-0.3-1.4
						c-0.2-0.4-0.4-0.7-0.7-0.8c-0.3-0.2-0.6-0.3-1-0.3c-0.4,0-0.7,0.1-1,0.3c-0.3,0.2-0.5,0.5-0.7,0.8c-0.2,0.4-0.3,0.8-0.3,1.4
						c0,0.5,0.1,1,0.3,1.4c0.2,0.4,0.4,0.7,0.7,0.8c0.3,0.2,0.6,0.3,1,0.3c0.4,0,0.7-0.1,1-0.3c0.3-0.2,0.5-0.5,0.7-0.8
						C215.1,129.6,215.2,129.2,215.2,128.6z M219,132.2l-2-7.1h1.4l1.3,5.2h0.1l1.4-5.2h1.3l1.4,5.2h0.1l1.3-5.2h1.4l-2,7.1h-1.3
						l-1.4-5h-0.1l-1.4,5H219z M227,126.2v-1.1h5.7v1.1h-2.2v6h-1.3v-6H227z M233.8,132.2v-7.1h1.3v3h3.3v-3h1.3v7.1h-1.3v-3h-3.3v3
						H233.8z"/>
					
						<linearGradient id="SVGID_13_" gradientUnits="userSpaceOnUse" x1="310.642" y1="94.282" x2="310.642" y2="55.712" gradientTransform="matrix(1 0 0 -1 0 412)">
						<stop  offset="0" style="stop-color:#9AB17F"/>
						<stop  offset="1" style="stop-color:#9AB17F;stop-opacity:0"/>
					</linearGradient>
					<path class="st21" d="M357.3,356.3c0-23.3-7.4-46-21.1-64.9c-13.7-18.8-33.1-32.9-55.2-40L264,303.9
						c11.1,3.6,20.8,10.6,27.6,20c6.9,9.4,10.6,20.8,10.6,32.4H357.3z"/>
					
						<linearGradient id="SVGID_14_" gradientUnits="userSpaceOnUse" x1="227.8855" y1="90.838" x2="227.8855" y2="55.712" gradientTransform="matrix(1 0 0 -1 0 412)">
						<stop  offset="0" style="stop-color:#07524E"/>
						<stop  offset="1" style="stop-color:#07524E;stop-opacity:0"/>
					</linearGradient>
					<path class="st22" d="M136.9,356.3c0-21.1,6.1-41.7,17.4-59.5c11.4-17.8,27.6-31.9,46.8-40.7c19.2-8.8,40.4-11.9,61.3-9
						c20.9,2.9,40.5,11.8,56.5,25.5L283,314.5c-8-6.9-17.8-11.3-28.2-12.8c-10.4-1.5-21.1,0.1-30.7,4.5s-17.7,11.5-23.4,20.3
						c-5.7,8.9-8.7,19.2-8.7,29.7H136.9z"/>
					
						<linearGradient id="SVGID_15_" gradientUnits="userSpaceOnUse" x1="285.2305" y1="94.282" x2="285.2305" y2="55.712" gradientTransform="matrix(1 0 0 -1 0 412)">
						<stop  offset="0" style="stop-color:#29817D"/>
						<stop  offset="1" style="stop-color:#2D9B95;stop-opacity:0"/>
					</linearGradient>
					<path class="st23" d="M319.3,273.1c-17.9-15.6-40.4-24.9-64.1-26.7l-4.1,55c11.8,0.9,23.1,5.6,32.1,13.3L319.3,273.1z"/>
					
						<ellipse transform="matrix(0.9985 -5.530029e-02 5.530029e-02 0.9985 -10.4559 7.4875)" class="st24" cx="130.1" cy="192.7" rx="4.9" ry="4.9"/>
					<path d="M144,197.7v-9.9h6v1.1h-4.8v3.4h4.5v1.1h-4.5v3.4h4.9v1.1H144z M157.1,200.5v-3.9H157c-0.1,0.1-0.2,0.3-0.4,0.5
						c-0.2,0.2-0.4,0.4-0.7,0.5c-0.3,0.2-0.7,0.2-1.1,0.2c-0.6,0-1.2-0.2-1.6-0.5c-0.5-0.3-0.8-0.8-1.1-1.3
						c-0.3-0.6-0.4-1.3-0.4-2.1c0-0.8,0.1-1.5,0.4-2c0.3-0.6,0.6-1,1.1-1.3c0.5-0.3,1-0.5,1.7-0.5c0.5,0,0.9,0.1,1.1,0.2
						c0.3,0.2,0.5,0.3,0.6,0.5c0.2,0.2,0.3,0.4,0.4,0.5h0.1v-1.2h1.1v10.2H157.1z M155,196.8c0.5,0,0.8-0.1,1.2-0.4
						c0.3-0.2,0.6-0.6,0.7-1c0.2-0.4,0.2-0.9,0.2-1.5c0-0.6-0.1-1-0.2-1.5c-0.2-0.4-0.4-0.7-0.7-1c-0.3-0.2-0.7-0.4-1.2-0.4
						c-0.5,0-0.9,0.1-1.2,0.4c-0.3,0.2-0.6,0.6-0.7,1c-0.2,0.4-0.2,0.9-0.2,1.4c0,0.5,0.1,1,0.2,1.4c0.2,0.4,0.4,0.8,0.7,1
						C154.1,196.7,154.5,196.8,155,196.8z M165,194.6v-4.4h1.1v7.4H165v-1.3H165c-0.2,0.4-0.4,0.7-0.8,1c-0.4,0.3-0.8,0.4-1.4,0.4
						c-0.5,0-0.9-0.1-1.2-0.3c-0.4-0.2-0.6-0.5-0.9-0.9c-0.2-0.4-0.3-0.9-0.3-1.6v-4.7h1.1v4.7c0,0.5,0.2,1,0.5,1.3
						c0.3,0.3,0.7,0.5,1.2,0.5c0.3,0,0.6-0.1,0.9-0.2c0.3-0.1,0.5-0.4,0.7-0.7C164.9,195.5,165,195.1,165,194.6z M168.3,197.7v-7.4
						h1.1v7.4H168.3z M168.9,189c-0.2,0-0.4-0.1-0.6-0.2c-0.2-0.2-0.2-0.3-0.2-0.5c0-0.2,0.1-0.4,0.2-0.5c0.2-0.2,0.4-0.2,0.6-0.2
						c0.2,0,0.4,0.1,0.6,0.2c0.2,0.2,0.2,0.3,0.2,0.5c0,0.2-0.1,0.4-0.2,0.5C169.3,188.9,169.1,189,168.9,189z M174.8,190.2v1h-3.9
						v-1H174.8z M172,188.4h1.1v7.1c0,0.3,0,0.6,0.1,0.7c0.1,0.2,0.2,0.3,0.4,0.3c0.2,0.1,0.3,0.1,0.5,0.1c0.1,0,0.2,0,0.3,0
						c0.1,0,0.1,0,0.2,0l0.2,1c-0.1,0-0.2,0.1-0.3,0.1c-0.1,0-0.3,0-0.5,0c-0.3,0-0.6-0.1-1-0.2c-0.3-0.1-0.6-0.4-0.8-0.6
						c-0.2-0.3-0.3-0.6-0.3-1.1V188.4z M177.2,200.5c-0.2,0-0.4,0-0.5,0c-0.2,0-0.3-0.1-0.3-0.1l0.3-1c0.3,0.1,0.5,0.1,0.7,0.1
						c0.2,0,0.4-0.1,0.6-0.3c0.2-0.2,0.3-0.4,0.5-0.8l0.2-0.6l-2.8-7.5h1.2l2.1,5.9h0.1l2.1-5.9h1.2l-3.2,8.5
						c-0.1,0.4-0.3,0.7-0.5,1c-0.2,0.3-0.5,0.4-0.7,0.6C177.9,200.4,177.6,200.5,177.2,200.5z"/>
					<ellipse class="st25" cx="204.3" cy="192.7" rx="4.9" ry="4.9"/>
					<path d="M221.3,197.7h-3.1v-9.9h3.2c1,0,1.8,0.2,2.5,0.6c0.7,0.4,1.2,1,1.6,1.7c0.4,0.7,0.5,1.6,0.5,2.6c0,1-0.2,1.9-0.6,2.7
						c-0.4,0.7-0.9,1.3-1.6,1.7C223.2,197.5,222.3,197.7,221.3,197.7z M219.5,196.6h1.8c0.8,0,1.5-0.2,2-0.5
						c0.5-0.3,0.9-0.8,1.2-1.4s0.4-1.3,0.4-2.1c0-0.8-0.1-1.5-0.4-2.1c-0.3-0.6-0.7-1-1.2-1.3c-0.5-0.3-1.2-0.5-1.9-0.5h-1.9V196.6z
						 M231,197.8c-0.7,0-1.3-0.2-1.9-0.5c-0.5-0.3-0.9-0.8-1.2-1.3c-0.3-0.6-0.4-1.2-0.4-2s0.1-1.4,0.4-2c0.3-0.6,0.7-1,1.2-1.4
						c0.5-0.3,1.1-0.5,1.8-0.5c0.4,0,0.8,0.1,1.1,0.2c0.4,0.1,0.7,0.3,1,0.6c0.3,0.3,0.6,0.7,0.7,1.1c0.2,0.5,0.3,1.1,0.3,1.8v0.5
						h-5.7v-1h4.6c0-0.4-0.1-0.8-0.3-1.1c-0.2-0.3-0.4-0.6-0.7-0.8c-0.3-0.2-0.7-0.3-1.1-0.3c-0.5,0-0.9,0.1-1.2,0.3
						c-0.3,0.2-0.6,0.5-0.8,0.9c-0.2,0.4-0.3,0.7-0.3,1.2v0.7c0,0.6,0.1,1,0.3,1.4c0.2,0.4,0.5,0.7,0.8,0.9c0.3,0.2,0.8,0.3,1.2,0.3
						c0.3,0,0.6,0,0.8-0.1c0.2-0.1,0.5-0.2,0.6-0.4c0.2-0.2,0.3-0.4,0.4-0.6l1.1,0.3c-0.1,0.4-0.3,0.7-0.6,1c-0.3,0.3-0.6,0.5-1,0.7
						C232,197.8,231.5,197.8,231,197.8z M236,197.7v-9.9h1.1v3.7h0.1c0.1-0.1,0.2-0.3,0.3-0.5c0.2-0.2,0.4-0.4,0.7-0.5
						c0.3-0.2,0.7-0.2,1.2-0.2c0.6,0,1.2,0.2,1.7,0.5c0.5,0.3,0.9,0.8,1.1,1.3c0.3,0.6,0.4,1.3,0.4,2c0,0.8-0.1,1.5-0.4,2.1
						c-0.3,0.6-0.6,1-1.1,1.3c-0.5,0.3-1,0.5-1.6,0.5c-0.5,0-0.9-0.1-1.1-0.2c-0.3-0.2-0.5-0.3-0.7-0.5c-0.2-0.2-0.3-0.4-0.4-0.5
						h-0.1v1.1H236z M237.1,194c0,0.6,0.1,1.1,0.2,1.5c0.2,0.4,0.4,0.8,0.7,1c0.3,0.2,0.7,0.4,1.2,0.4c0.5,0,0.9-0.1,1.2-0.4
						c0.3-0.3,0.6-0.6,0.7-1c0.2-0.4,0.2-0.9,0.2-1.4c0-0.5-0.1-1-0.2-1.4c-0.2-0.4-0.4-0.8-0.7-1c-0.3-0.2-0.7-0.4-1.2-0.4
						c-0.5,0-0.9,0.1-1.2,0.4c-0.3,0.2-0.6,0.6-0.7,1C237.2,192.9,237.1,193.4,237.1,194z M247.6,190.2v1h-3.9v-1H247.6z
						 M244.8,188.4h1.1v7.1c0,0.3,0,0.6,0.1,0.7c0.1,0.2,0.2,0.3,0.4,0.3c0.2,0.1,0.3,0.1,0.5,0.1c0.1,0,0.2,0,0.3,0
						c0.1,0,0.1,0,0.2,0l0.2,1c-0.1,0-0.2,0.1-0.3,0.1c-0.1,0-0.3,0-0.5,0c-0.3,0-0.6-0.1-1-0.2c-0.3-0.1-0.6-0.4-0.8-0.6
						c-0.2-0.3-0.3-0.6-0.3-1.1V188.4z"/>
					<ellipse class="st26" cx="269.5" cy="192.7" rx="4.9" ry="4.9"/>
					<path d="M283.9,197.7h-1.3l3.6-9.9h1.2l3.6,9.9h-1.3l-3-8.4h-0.1L283.9,197.7z M284.4,193.8h5.1v1.1h-5.1V193.8z M293.7,187.7
						v9.9h-1.1v-9.9H293.7z M299,190.2v1h-3.9v-1H299z M296.3,188.4h1.1v7.1c0,0.3,0,0.6,0.1,0.7c0.1,0.2,0.2,0.3,0.4,0.3
						c0.2,0.1,0.3,0.1,0.5,0.1c0.1,0,0.2,0,0.3,0c0.1,0,0.1,0,0.2,0l0.2,1c-0.1,0-0.2,0.1-0.3,0.1c-0.1,0-0.3,0-0.5,0
						c-0.3,0-0.6-0.1-1-0.2c-0.3-0.1-0.6-0.4-0.8-0.6c-0.2-0.3-0.3-0.6-0.3-1.1V188.4z M303.8,197.8c-0.7,0-1.3-0.2-1.9-0.5
						c-0.5-0.3-0.9-0.8-1.2-1.3c-0.3-0.6-0.4-1.2-0.4-2s0.1-1.4,0.4-2c0.3-0.6,0.7-1,1.2-1.4c0.5-0.3,1.1-0.5,1.8-0.5
						c0.4,0,0.8,0.1,1.1,0.2c0.4,0.1,0.7,0.3,1,0.6c0.3,0.3,0.6,0.7,0.7,1.1c0.2,0.5,0.3,1.1,0.3,1.8v0.5h-5.7v-1h4.6
						c0-0.4-0.1-0.8-0.3-1.1c-0.2-0.3-0.4-0.6-0.7-0.8c-0.3-0.2-0.7-0.3-1.1-0.3c-0.5,0-0.9,0.1-1.2,0.3c-0.3,0.2-0.6,0.5-0.8,0.9
						s-0.3,0.7-0.3,1.2v0.7c0,0.6,0.1,1,0.3,1.4c0.2,0.4,0.5,0.7,0.8,0.9c0.3,0.2,0.8,0.3,1.2,0.3c0.3,0,0.6,0,0.8-0.1
						c0.2-0.1,0.5-0.2,0.6-0.4c0.2-0.2,0.3-0.4,0.4-0.6l1.1,0.3c-0.1,0.4-0.3,0.7-0.6,1c-0.3,0.3-0.6,0.5-1,0.7
						C304.8,197.8,304.3,197.8,303.8,197.8z M308.6,197.7v-7.4h1.1v1.1h0.1c0.1-0.4,0.4-0.7,0.7-0.9c0.4-0.2,0.8-0.3,1.2-0.3
						c0.1,0,0.2,0,0.3,0c0.1,0,0.2,0,0.3,0v1.2c0,0-0.1,0-0.3,0c-0.1,0-0.3,0-0.4,0c-0.4,0-0.7,0.1-1,0.2c-0.3,0.1-0.5,0.4-0.7,0.6
						c-0.2,0.3-0.2,0.6-0.2,0.9v4.7H308.6z M314.9,193.2v4.5h-1.1v-7.4h1.1v1.2h0.1c0.2-0.4,0.4-0.7,0.8-0.9
						c0.4-0.2,0.8-0.3,1.4-0.3c0.5,0,0.9,0.1,1.3,0.3c0.4,0.2,0.7,0.5,0.9,0.9c0.2,0.4,0.3,0.9,0.3,1.6v4.7h-1.1V193
						c0-0.6-0.2-1-0.5-1.4c-0.3-0.3-0.7-0.5-1.3-0.5c-0.4,0-0.7,0.1-1,0.2c-0.3,0.2-0.5,0.4-0.7,0.7
						C314.9,192.4,314.9,192.8,314.9,193.2z M323.9,197.8c-0.5,0-0.9-0.1-1.3-0.3c-0.4-0.2-0.7-0.4-0.9-0.8
						c-0.2-0.3-0.3-0.8-0.3-1.2c0-0.4,0.1-0.8,0.3-1c0.2-0.3,0.4-0.5,0.7-0.6c0.3-0.2,0.6-0.3,0.9-0.3c0.3-0.1,0.7-0.1,1-0.2
						c0.5-0.1,0.8-0.1,1.1-0.1c0.3,0,0.5-0.1,0.6-0.2c0.1-0.1,0.2-0.2,0.2-0.4v0c0-0.5-0.1-0.9-0.4-1.1c-0.3-0.3-0.7-0.4-1.2-0.4
						c-0.5,0-1,0.1-1.3,0.4c-0.3,0.2-0.5,0.5-0.7,0.8l-1.1-0.4c0.2-0.5,0.5-0.8,0.8-1.1c0.3-0.3,0.7-0.4,1.1-0.5
						c0.4-0.1,0.8-0.2,1.1-0.2c0.2,0,0.5,0,0.8,0.1c0.3,0.1,0.6,0.2,0.9,0.3c0.3,0.2,0.5,0.4,0.7,0.8c0.2,0.4,0.3,0.8,0.3,1.4v4.9
						h-1.1v-1h-0.1c-0.1,0.2-0.2,0.3-0.4,0.5c-0.2,0.2-0.4,0.3-0.7,0.5C324.7,197.8,324.3,197.8,323.9,197.8z M324.1,196.8
						c0.5,0,0.8-0.1,1.1-0.3c0.3-0.2,0.6-0.4,0.7-0.7c0.2-0.3,0.2-0.6,0.2-0.9v-1c0,0.1-0.2,0.1-0.3,0.2c-0.2,0-0.3,0.1-0.6,0.1
						c-0.2,0-0.4,0.1-0.6,0.1c-0.2,0-0.4,0-0.5,0.1c-0.3,0-0.6,0.1-0.8,0.2c-0.3,0.1-0.5,0.2-0.6,0.4c-0.2,0.2-0.2,0.4-0.2,0.7
						c0,0.4,0.1,0.7,0.4,0.9C323.2,196.7,323.6,196.8,324.1,196.8z M332.6,190.2v1h-3.9v-1H332.6z M329.9,188.4h1.1v7.1
						c0,0.3,0,0.6,0.1,0.7c0.1,0.2,0.2,0.3,0.4,0.3c0.2,0.1,0.3,0.1,0.5,0.1c0.1,0,0.2,0,0.3,0c0.1,0,0.1,0,0.2,0l0.2,1
						c-0.1,0-0.2,0.1-0.3,0.1c-0.1,0-0.3,0-0.5,0c-0.3,0-0.6-0.1-1-0.2c-0.3-0.1-0.6-0.4-0.8-0.6c-0.2-0.3-0.3-0.6-0.3-1.1V188.4z
						 M337.4,197.8c-0.7,0-1.3-0.2-1.9-0.5c-0.5-0.3-0.9-0.8-1.2-1.3c-0.3-0.6-0.4-1.2-0.4-2s0.1-1.4,0.4-2c0.3-0.6,0.7-1,1.2-1.4
						c0.5-0.3,1.1-0.5,1.8-0.5c0.4,0,0.8,0.1,1.1,0.2c0.4,0.1,0.7,0.3,1,0.6c0.3,0.3,0.6,0.7,0.7,1.1c0.2,0.5,0.3,1.1,0.3,1.8v0.5
						h-5.7v-1h4.6c0-0.4-0.1-0.8-0.3-1.1c-0.2-0.3-0.4-0.6-0.7-0.8c-0.3-0.2-0.7-0.3-1.1-0.3c-0.5,0-0.9,0.1-1.2,0.3
						c-0.3,0.2-0.6,0.5-0.8,0.9s-0.3,0.7-0.3,1.2v0.7c0,0.6,0.1,1,0.3,1.4c0.2,0.4,0.5,0.7,0.8,0.9c0.3,0.2,0.8,0.3,1.2,0.3
						c0.3,0,0.6,0,0.8-0.1c0.2-0.1,0.5-0.2,0.6-0.4c0.2-0.2,0.3-0.4,0.4-0.6l1.1,0.3c-0.1,0.4-0.3,0.7-0.6,1c-0.3,0.3-0.6,0.5-1,0.7
						C338.3,197.8,337.9,197.8,337.4,197.8z M347.5,191.9l-1,0.3c-0.1-0.2-0.2-0.3-0.3-0.5c-0.1-0.2-0.3-0.3-0.5-0.4
						c-0.2-0.1-0.5-0.2-0.8-0.2c-0.5,0-0.8,0.1-1.1,0.3c-0.3,0.2-0.5,0.5-0.5,0.8c0,0.3,0.1,0.5,0.3,0.7c0.2,0.2,0.5,0.3,1,0.4
						l1.1,0.3c0.7,0.2,1.2,0.4,1.5,0.7c0.3,0.3,0.5,0.8,0.5,1.3c0,0.4-0.1,0.8-0.4,1.1c-0.2,0.3-0.6,0.6-1,0.8
						c-0.4,0.2-0.9,0.3-1.5,0.3c-0.8,0-1.4-0.2-1.9-0.5c-0.5-0.3-0.8-0.8-0.9-1.4l1.1-0.3c0.1,0.4,0.3,0.7,0.6,0.9
						c0.3,0.2,0.7,0.3,1.1,0.3c0.5,0,1-0.1,1.3-0.3c0.3-0.2,0.5-0.5,0.5-0.8c0-0.3-0.1-0.5-0.3-0.6c-0.2-0.2-0.5-0.3-0.8-0.4
						l-1.2-0.3c-0.7-0.2-1.2-0.4-1.5-0.8c-0.3-0.3-0.5-0.8-0.5-1.3c0-0.4,0.1-0.8,0.4-1.1c0.2-0.3,0.6-0.6,1-0.8
						c0.4-0.2,0.9-0.3,1.4-0.3c0.7,0,1.3,0.2,1.7,0.5C347,190.9,347.3,191.4,347.5,191.9z"/>
					
						<linearGradient id="SVGID_16_" gradientUnits="userSpaceOnUse" x1="105.682" y1="248.105" x2="388.496" y2="248.105" gradientTransform="matrix(1 0 0 -1 0 412)">
						<stop  offset="0" style="stop-color:#FFFFFF;stop-opacity:0"/>
						<stop  offset="0.1823" style="stop-color:#FFFFFF"/>
						<stop  offset="0.7813" style="stop-color:#FFFFFF"/>
						<stop  offset="1" style="stop-color:#FFFFFF;stop-opacity:0"/>
					</linearGradient>
					<line class="st27" x1="105.7" y1="163.9" x2="388.5" y2="163.9"/>
				</g>
			</g>
			
				<linearGradient id="SVGID_17_" gradientUnits="userSpaceOnUse" x1="247.0915" y1="354.1286" x2="247.0915" y2="57.6614" gradientTransform="matrix(1 0 0 -1 0 412)">
				<stop  offset="0" style="stop-color:#FFFFFF"/>
				<stop  offset="1" style="stop-color:#FFFFFF;stop-opacity:0"/>
			</linearGradient>
			<path class="st28" d="M121.3,58.3h251.6c8.4,0,15.1,6.8,15.1,15.1v265.3c0,8.4-6.8,15.1-15.1,15.1H121.3
				c-8.4,0-15.1-6.8-15.1-15.1V73.5C106.1,65.1,112.9,58.3,121.3,58.3z"/>
			
				<radialGradient id="SVGID_18_" cx="1.601946e-02" cy="330.9838" r="1" gradientTransform="matrix(5.072273e-15 -82.8365 -123.674 -7.572849e-15 41181.1875 355.665)" gradientUnits="userSpaceOnUse">
				<stop  offset="0" style="stop-color:#C4B86F"/>
				<stop  offset="1" style="stop-color:#C4B86F;stop-opacity:0"/>
			</radialGradient>
			<path class="st29" d="M121.3,58.3h251.6c8.4,0,15.1,6.8,15.1,15.1v265.3c0,8.4-6.8,15.1-15.1,15.1H121.3
				c-8.4,0-15.1-6.8-15.1-15.1V73.5C106.1,65.1,112.9,58.3,121.3,58.3z"/>
		</g>
	</g>
</g>
</svg>
