<svg width="202" height="70" viewBox="0 0 202 70" fill="none" xmlns="http://www.w3.org/2000/svg">
<path d="M85.0266 19.4498C85.0145 19.5346 85.0145 19.6315 85.0266 19.7163C85.0508 19.7889 85.0993 19.8616 85.1598 19.91C85.2567 19.9706 85.3657 20.019 85.4747 20.0433C85.6564 20.1038 85.838 20.1402 86.0197 20.1523C86.1287 20.1523 86.1893 20.2734 86.1893 20.4308C86.1893 20.5883 86.1893 20.5156 86.1893 20.5761C86.1893 20.6367 86.1893 20.6972 86.1893 20.7457H85.063H84.0093H82.9436H81.8294C81.8173 20.6851 81.8173 20.6367 81.8294 20.5761V20.4308C81.8294 20.2613 81.8899 20.1644 81.9989 20.1523C82.1806 20.1402 82.3623 20.1038 82.5439 20.0433C82.6529 20.019 82.7498 19.9706 82.8467 19.91C82.9073 19.8616 82.9557 19.7889 82.9799 19.7163C82.992 19.6315 82.992 19.5346 82.9799 19.4498V11.2388C82.992 11.154 82.992 11.0571 82.9799 10.9723C82.9557 10.8997 82.9073 10.827 82.8467 10.7786C82.7498 10.718 82.6529 10.6696 82.5439 10.6453L81.9989 10.5363C81.8778 10.5 81.8052 10.3789 81.8294 10.2578V10.1125C81.8173 10.0519 81.8173 9.99136 81.8294 9.93081H82.9436H84.0093H85.063H86.1893C86.1893 9.93081 86.1893 10.0398 86.1893 10.1125C86.1893 10.1851 86.1893 10.2215 86.1893 10.2578C86.2135 10.3789 86.1408 10.5 86.0197 10.5363L85.4747 10.6453C85.3657 10.6696 85.2567 10.718 85.1598 10.7786C85.0993 10.827 85.0508 10.8997 85.0266 10.9723C85.0145 11.0571 85.0145 11.154 85.0266 11.2388V19.4498Z" fill="#00588D"/>
<path d="M97.7443 17.0882V11.2751C97.7564 11.0692 97.6716 10.8754 97.5021 10.7664C97.2236 10.6453 96.9329 10.5606 96.6301 10.5363C96.4848 10.5 96.3879 10.3668 96.4121 10.2215V10.0882C96.4 10.0398 96.4 9.97925 96.4121 9.93081C96.6786 9.94292 96.9571 9.94292 97.2235 9.93081H98.1319H99.0402C99.2945 9.94292 99.5367 9.94292 99.791 9.93081C99.791 9.97925 99.791 10.0398 99.791 10.0882C99.791 10.0882 99.791 10.1972 99.791 10.2215C99.791 10.2457 99.7184 10.5121 99.5851 10.5363C99.3308 10.5606 99.0765 10.6332 98.8585 10.7664C98.7132 10.8754 98.6405 11.0571 98.6526 11.2388V20.8305H98.4346H98.3498C98.2651 20.8426 98.1924 20.8426 98.1076 20.8305C97.9986 20.7699 97.9017 20.6851 97.8291 20.5883L91.3741 12.4014V19.4741C91.362 19.5588 91.362 19.6557 91.3741 19.7405C91.3862 19.8132 91.4346 19.8737 91.4952 19.9222C91.5921 19.9827 91.7011 20.0312 91.8101 20.0554C91.9917 20.1038 92.1734 20.1523 92.3671 20.1765C92.4156 20.1886 92.464 20.2128 92.5004 20.2491C92.5488 20.3218 92.573 20.4066 92.5609 20.4914C92.573 20.5883 92.573 20.673 92.5609 20.7699H91.7979H90.9623H90.054H89.2547C89.2426 20.7215 89.2426 20.673 89.2547 20.6246V20.4914C89.2305 20.4187 89.2305 20.3339 89.2547 20.2613C89.291 20.2128 89.3395 20.1886 89.3879 20.1765C89.6665 20.1523 89.9329 20.0675 90.1751 19.9343C90.3083 19.8253 90.381 19.6557 90.3689 19.4741V11.1782C90.381 11.0208 90.3204 10.8754 90.1993 10.7786C89.9571 10.6575 89.6907 10.5848 89.4242 10.5606C89.291 10.5606 89.2305 10.4273 89.2305 10.2457V10.173C89.2305 10.1488 89.2305 10.1125 89.2305 10.0882V9.95503H89.6786H90.1024H90.8291H91.4346C91.6405 9.93081 91.8464 9.93081 92.0523 9.95503C92.1492 9.99136 92.246 10.0398 92.3187 10.1125L97.7564 16.9914" fill="#00588D"/>
<path d="M110.738 11.3841C110.787 11.2751 110.811 11.1661 110.823 11.045C110.823 10.8997 110.738 10.7664 110.605 10.7059C110.363 10.609 110.121 10.5606 109.866 10.5363C109.733 10.5363 109.672 10.4273 109.672 10.2215C109.672 10.1972 109.672 10.173 109.672 10.1488V10.064V9.93081H110.024H110.496H111.477H112.385C112.627 9.95503 112.882 9.95503 113.124 9.93081V10.064C113.124 10.064 113.124 10.1246 113.124 10.1609V10.2457C113.124 10.4516 113.063 10.5606 112.93 10.5727C112.676 10.5848 112.422 10.6453 112.179 10.7422C112.022 10.8391 111.889 10.9966 111.828 11.1782L107.783 20.8668H107.541C107.48 20.891 107.408 20.891 107.347 20.8668C107.287 20.8062 107.25 20.7215 107.226 20.6367L103.387 11.154C103.363 11.0813 103.326 11.0087 103.278 10.9481C103.242 10.8754 103.181 10.827 103.108 10.7907L102.806 10.6817L102.309 10.609C102.164 10.609 102.091 10.4879 102.091 10.2699V10.1367C102.079 10.0882 102.079 10.0398 102.091 9.99136H102.648H103.278H104.489H105.7H106.911C106.911 10.0519 106.911 10.1004 106.911 10.1609V10.282C106.911 10.4879 106.851 10.5848 106.717 10.5969C106.463 10.609 106.209 10.6575 105.979 10.7664C105.858 10.8149 105.773 10.936 105.773 11.0692C105.761 11.154 105.761 11.2509 105.773 11.3357L108.195 17.8028L110.738 11.4447" fill="#00588D"/>
<path d="M118.94 10.827V14.7751H121.253C121.435 14.7993 121.617 14.6903 121.677 14.5207C121.774 14.2543 121.847 13.9757 121.871 13.6972C121.871 13.6245 121.907 13.564 121.968 13.5277C122.041 13.5155 122.113 13.5155 122.186 13.5277H122.343H122.501C122.501 13.782 122.501 14.0726 122.44 14.4117C122.38 14.7508 122.44 15.0173 122.44 15.2474C122.44 15.4775 122.44 15.6834 122.44 15.9498C122.44 16.2162 122.44 16.519 122.513 16.8581C122.465 16.8702 122.404 16.8702 122.356 16.8581H122.198C122.004 16.8581 121.895 16.7854 121.883 16.628C121.859 16.3373 121.786 16.0467 121.665 15.7802C121.58 15.6349 121.435 15.5501 121.266 15.5623H118.94V19.1955C118.94 19.4256 119.086 19.583 119.364 19.6557C119.836 19.7526 120.321 19.7889 120.805 19.7768H121.496C121.774 19.7889 122.053 19.7405 122.319 19.6436C122.537 19.5467 122.743 19.4256 122.925 19.2681C123.106 19.0986 123.264 18.9169 123.385 18.711C123.506 18.5052 123.639 18.2629 123.772 17.9965C123.821 17.9117 123.906 17.8754 124.003 17.8875C124.063 17.8754 124.136 17.8754 124.196 17.8875L124.426 17.9844L124.354 18.2387L124.281 18.4567C124.221 18.5899 124.172 18.7232 124.148 18.8564C124.124 18.9775 124.087 19.0865 124.051 19.1955C124.051 19.3045 124.051 19.4256 123.978 19.5709C123.906 19.7162 123.918 19.8373 123.894 19.9584C123.869 20.0796 123.845 20.1886 123.809 20.2975V20.4913C123.748 20.5882 123.651 20.6366 123.542 20.6245H123.167H122.634H122.053H117.826H116.736H115.634C115.622 20.564 115.622 20.5155 115.634 20.455V20.2975C115.634 20.128 115.634 20.0432 115.792 20.0311C116.094 19.9827 116.397 19.91 116.688 19.7889C116.869 19.7041 116.966 19.5225 116.954 19.3287V11.1176C116.978 11.0328 116.978 10.936 116.954 10.8512C116.918 10.7664 116.857 10.7059 116.772 10.6695C116.651 10.609 116.53 10.5726 116.409 10.5363L115.84 10.4152C115.731 10.4152 115.683 10.282 115.683 10.1245V9.9671C115.67 9.91865 115.67 9.8581 115.683 9.80966C116.143 9.80966 116.567 9.80966 116.894 9.80966H117.838H121.193C121.689 9.80966 122.101 9.80966 122.465 9.80966C122.828 9.80966 123.058 9.80966 123.191 9.80966C123.3 9.80966 123.409 9.8581 123.458 9.95499C123.506 10.1124 123.53 10.2699 123.53 10.4394C123.554 10.6816 123.591 10.9238 123.651 11.1661L123.76 11.711C123.821 11.929 123.881 12.1349 123.966 12.3408L123.785 12.4135C123.712 12.4256 123.651 12.4256 123.579 12.4135C123.47 12.4256 123.373 12.365 123.324 12.2681C123.191 11.9896 123.058 11.7474 122.937 11.5415C122.828 11.3598 122.683 11.1903 122.513 11.0571C122.343 10.9238 122.162 10.827 121.956 10.7785C121.702 10.718 121.447 10.6937 121.193 10.6937H118.94" fill="#00588D"/>
<path d="M134.163 12.6678C134.054 12.6799 133.957 12.6799 133.848 12.6678C133.643 12.7041 133.449 12.583 133.388 12.3893C133.194 11.8564 132.855 11.3962 132.419 11.045C131.935 10.7543 131.378 10.609 130.809 10.6332C130.336 10.6211 129.864 10.7543 129.476 11.0208C129.089 11.2993 128.883 11.7595 128.931 12.2318C128.919 12.5951 129.065 12.9585 129.343 13.2007C129.658 13.4671 130.009 13.6972 130.397 13.8547C130.821 14.0363 131.269 14.218 131.753 14.3875C132.226 14.5692 132.686 14.7872 133.122 15.0415C133.534 15.308 133.885 15.6471 134.163 16.0467C134.466 16.5069 134.611 17.0519 134.587 17.609C134.587 18.0208 134.515 18.4325 134.369 18.8201C134.224 19.2076 133.994 19.5709 133.703 19.8616C133.352 20.1765 132.94 20.4187 132.492 20.5761C131.947 20.7699 131.378 20.8547 130.797 20.8426C130.143 20.8547 129.501 20.7699 128.871 20.6124C128.386 20.4913 127.914 20.3218 127.454 20.1038C127.454 19.6436 127.369 19.1834 127.297 18.7232C127.224 18.263 127.151 17.827 127.066 17.4031C127.188 17.3789 127.321 17.3789 127.442 17.4031C127.539 17.391 127.648 17.4152 127.733 17.4758C127.817 17.5363 127.878 17.6332 127.902 17.7301C128.023 18.1055 128.181 18.4689 128.374 18.808C128.532 19.0865 128.738 19.3287 128.98 19.5346C129.21 19.7284 129.489 19.8737 129.779 19.9585C130.118 20.0554 130.47 20.0917 130.821 20.0917C131.111 20.1038 131.402 20.0554 131.681 19.9464C131.899 19.8616 132.104 19.7405 132.274 19.583C132.431 19.4256 132.54 19.2439 132.613 19.0381C132.698 18.8322 132.734 18.6142 132.734 18.3962C132.758 17.9844 132.613 17.5848 132.335 17.2941C132.044 17.0156 131.705 16.7855 131.329 16.6159C130.906 16.4221 130.47 16.2526 130.034 16.1073C129.585 15.9498 129.149 15.7439 128.738 15.5017C128.338 15.2595 127.999 14.9325 127.745 14.545C127.454 14.0727 127.321 13.5277 127.345 12.9827C127.345 12.5709 127.418 12.1592 127.575 11.7716C127.732 11.3962 127.975 11.0571 128.277 10.7906C128.592 10.5 128.968 10.2699 129.38 10.1246C129.852 9.95501 130.361 9.87023 130.869 9.88234C131.329 9.88234 131.802 9.93079 132.25 10.0277C132.795 10.1488 133.316 10.3062 133.836 10.5121C133.836 10.8391 133.836 11.2145 133.933 11.6263C134.03 12.0381 134.042 12.4014 134.115 12.7284" fill="#00588D"/>
<path d="M143.224 10.827V19.4499C143.212 19.5346 143.212 19.6315 143.224 19.7163C143.236 19.789 143.284 19.8616 143.345 19.9101C143.43 19.9706 143.527 20.0191 143.623 20.0433C143.793 20.1038 143.963 20.1402 144.132 20.1523C144.277 20.1765 144.374 20.2855 144.374 20.4308C144.374 20.4793 144.374 20.5277 144.374 20.5762C144.386 20.6367 144.386 20.6852 144.374 20.7457H143.26H142.206H141.141H140.039C140.027 20.6852 140.027 20.6367 140.039 20.5762C140.039 20.5277 140.039 20.4793 140.039 20.4308C140.027 20.3703 140.027 20.3097 140.039 20.2492C140.099 20.1886 140.184 20.1523 140.269 20.1402C140.535 20.1281 140.789 20.0554 141.02 19.9222C141.141 19.789 141.189 19.6194 141.177 19.4499V10.827H139.736C139.469 10.827 139.215 10.8512 138.961 10.9239C138.755 10.9723 138.561 11.0692 138.404 11.2025C138.234 11.3357 138.089 11.5052 137.98 11.6869C137.834 11.9291 137.701 12.1713 137.592 12.4256C137.556 12.5225 137.459 12.5831 137.35 12.571C137.277 12.5831 137.193 12.5831 137.12 12.571L136.914 12.4983C136.999 12.244 137.059 12.0018 137.12 11.808C137.18 11.6142 137.217 11.4083 137.253 11.2025C137.289 10.9966 137.326 10.7301 137.35 10.5364C137.362 10.391 137.386 10.2457 137.423 10.1125C137.471 10.0156 137.58 9.95505 137.689 9.96716C137.81 9.96716 138.052 9.96716 138.404 9.96716C138.755 9.96716 139.191 9.96716 139.687 9.96716H144.738C145.222 9.96716 145.658 9.96716 146.009 9.96716C146.36 9.96716 146.603 9.96716 146.736 9.96716C146.845 9.96716 146.954 10.0156 147.002 10.1125C147.039 10.2578 147.063 10.391 147.075 10.5364C147.087 10.7544 147.123 10.9845 147.172 11.2025C147.172 11.4083 147.257 11.6021 147.305 11.808C147.366 12.0381 147.426 12.2682 147.511 12.4983L147.305 12.571C147.232 12.5831 147.148 12.5831 147.075 12.571C146.966 12.5831 146.869 12.5225 146.821 12.4256C146.7 12.1713 146.578 11.9291 146.433 11.6869C146.312 11.5052 146.179 11.3357 146.009 11.2025C145.84 11.0692 145.658 10.9723 145.452 10.9239C145.198 10.8512 144.943 10.827 144.689 10.827H143.248" fill="#00588D"/>
<path d="M160.115 10.3184C160.164 10.2215 160.236 10.1367 160.333 10.0883C160.563 10.0277 160.806 10.0035 161.048 10.0156H161.98H162.574H163.082C163.095 10.064 163.095 10.1246 163.082 10.173V10.3063C163.082 10.4879 163.022 10.5848 162.901 10.6211C162.731 10.6454 162.55 10.6817 162.38 10.718C162.283 10.7422 162.174 10.7907 162.089 10.8391C162.029 10.8755 161.992 10.936 161.968 11.0087C161.956 11.0813 161.956 11.1661 161.968 11.2388C161.968 11.2388 161.968 11.4689 161.968 11.8685C161.968 12.2682 161.968 12.7405 162.041 13.3218C162.114 13.9031 162.101 14.5329 162.138 15.2111C162.174 15.8893 162.21 16.5312 162.235 17.1367C162.259 17.7422 162.295 18.263 162.319 18.7111C162.344 19.1592 162.319 19.4377 162.319 19.5346C162.307 19.6194 162.307 19.7163 162.319 19.8011C162.356 19.8737 162.416 19.9464 162.477 19.9948C162.574 20.0554 162.671 20.1038 162.78 20.1281C162.949 20.1886 163.119 20.2249 163.288 20.237C163.397 20.237 163.458 20.3703 163.458 20.5519C163.47 20.6488 163.47 20.7336 163.458 20.8305H162.416H161.363H160.152H159.134C159.122 20.7336 159.122 20.6488 159.134 20.5519C159.122 20.4671 159.146 20.3824 159.195 20.3097C159.195 20.3097 159.268 20.237 159.292 20.237C159.595 20.2128 159.897 20.1159 160.164 19.9706C160.297 19.8495 160.37 19.6678 160.358 19.4862C160.358 19.4862 160.358 19.2803 160.358 18.9654C160.358 18.6505 160.358 18.2509 160.358 17.7543C160.358 17.2578 160.358 16.7855 160.297 16.2284C160.236 15.6713 160.236 15.1748 160.212 14.6903C160.188 14.2059 160.212 13.7941 160.152 13.4793C160.091 13.1644 160.152 12.9222 160.152 12.8495L156.797 20.6609L156.664 20.8789C156.627 20.9274 156.567 20.9516 156.506 20.9516H156.3L152.498 11.8443C152.498 11.9896 152.498 12.2682 152.498 12.7042C152.498 13.1402 152.498 13.6246 152.437 14.1817C152.377 14.7388 152.377 15.3322 152.352 15.9498C152.328 16.5675 152.352 17.1609 152.28 17.6575C152.207 18.154 152.28 18.6263 152.219 18.9775C152.159 19.3287 152.219 19.5225 152.219 19.5588C152.207 19.6436 152.207 19.7284 152.219 19.8132C152.243 19.8858 152.292 19.9585 152.352 20.0069C152.437 20.0675 152.534 20.1159 152.643 20.1402C152.825 20.1886 153.006 20.237 153.188 20.2613C153.297 20.2613 153.357 20.3945 153.357 20.5761V20.6973C153.357 20.6973 153.357 20.8062 153.357 20.8547H152.534H151.783H150.96H150.075C150.063 20.8062 150.063 20.7578 150.075 20.7094V20.5761C150.063 20.4914 150.063 20.4187 150.075 20.3339C150.112 20.2976 150.16 20.2734 150.209 20.2613C150.463 20.2249 150.717 20.1281 150.947 20.0069C151.105 19.9101 151.202 19.7405 151.214 19.5588C151.214 19.4741 151.214 19.2076 151.214 18.7595C151.214 18.3236 151.214 17.8028 151.287 17.1973C151.359 16.5917 151.359 15.9862 151.383 15.2595C151.408 14.5329 151.456 13.9395 151.48 13.3582C151.505 12.7768 151.48 12.2803 151.541 11.8928C151.601 11.5052 151.541 11.2872 151.541 11.263C151.553 11.1056 151.48 10.9602 151.359 10.8633C151.117 10.7422 150.851 10.6696 150.584 10.6454C150.463 10.6454 150.402 10.5364 150.402 10.3305V10.1973C150.39 10.1488 150.39 10.0883 150.402 10.0398H150.996H151.771H152.982C153.14 10.0277 153.285 10.0277 153.442 10.0398H153.709C153.769 10.064 153.818 10.1004 153.842 10.1488L153.915 10.2699L156.966 17.6332L160.079 10.2699" fill="#00588D"/>
<path d="M169.879 10.827V14.7751H172.229C172.411 14.7993 172.592 14.6903 172.653 14.5207C172.75 14.2543 172.822 13.9757 172.847 13.6972C172.847 13.6245 172.883 13.564 172.943 13.5277C173.016 13.5155 173.089 13.5155 173.161 13.5277H173.319H173.476C173.476 13.782 173.476 14.0726 173.416 14.4117C173.355 14.7508 173.416 15.0173 173.416 15.2474C173.416 15.4775 173.416 15.6834 173.416 15.9498C173.416 16.2162 173.416 16.519 173.488 16.8581C173.44 16.8702 173.379 16.8702 173.331 16.8581H173.174C172.98 16.8581 172.871 16.7854 172.859 16.628C172.834 16.3373 172.762 16.0467 172.641 15.7802C172.556 15.6349 172.411 15.5501 172.241 15.5623H169.928V19.1955C169.928 19.4256 170.073 19.583 170.352 19.6557C170.824 19.7526 171.308 19.7889 171.793 19.7768H172.483C172.762 19.7889 173.04 19.7405 173.307 19.6436C173.525 19.5467 173.731 19.4256 173.912 19.2681C174.094 19.0986 174.251 18.9169 174.372 18.711C174.494 18.5052 174.627 18.2629 174.76 17.9965C174.808 17.9117 174.893 17.8754 174.99 17.8875C175.051 17.8754 175.123 17.8754 175.184 17.8875L175.414 17.9844L175.341 18.2387L175.269 18.4567C175.22 18.5899 175.172 18.7232 175.135 18.8564C175.111 18.9775 175.087 19.0865 175.039 19.1955C175.039 19.3045 175.039 19.4256 174.966 19.5709C174.942 19.7041 174.917 19.8252 174.881 19.9584C174.881 20.0917 174.881 20.2007 174.808 20.2975C174.736 20.3944 174.808 20.455 174.808 20.4913C174.748 20.5882 174.651 20.6366 174.542 20.6245H174.167H173.634H173.052H168.717H167.627H166.525C166.513 20.564 166.513 20.5155 166.525 20.455V20.2975C166.525 20.128 166.525 20.0432 166.694 20.0311C166.997 19.9827 167.3 19.91 167.578 19.7889C167.76 19.7041 167.869 19.5225 167.857 19.3287V11.1176C167.869 11.0328 167.869 10.936 167.857 10.8512C167.808 10.7664 167.748 10.7059 167.663 10.6695C167.542 10.609 167.421 10.5726 167.3 10.5363L166.743 10.4152C166.622 10.4152 166.573 10.282 166.573 10.1245V9.9671C166.561 9.91865 166.561 9.8581 166.573 9.80966C167.045 9.80966 167.457 9.80966 167.784 9.80966H168.717H172.071C172.568 9.80966 172.992 9.80966 173.343 9.80966C173.694 9.80966 173.936 9.80966 174.07 9.80966C174.179 9.80966 174.288 9.8581 174.336 9.95499C174.385 10.1124 174.409 10.2699 174.409 10.4394C174.409 10.6695 174.481 10.9117 174.53 11.1661L174.639 11.711C174.699 11.929 174.76 12.1349 174.845 12.3408L174.663 12.4135C174.59 12.4256 174.53 12.4256 174.457 12.4135C174.348 12.4256 174.251 12.365 174.203 12.2681C174.07 11.9896 173.936 11.7474 173.815 11.5415C173.706 11.3598 173.561 11.1903 173.391 11.0571C173.222 10.9238 173.04 10.827 172.834 10.7785C172.58 10.718 172.326 10.6937 172.071 10.6937H169.891" fill="#00588D"/>
<path d="M186.661 17.0882V11.2751C186.685 11.0692 186.588 10.8754 186.407 10.7664C186.14 10.6453 185.85 10.5606 185.547 10.5363C185.401 10.5 185.305 10.3668 185.329 10.2215V10.0882C185.317 10.0398 185.317 9.97925 185.329 9.93081C185.595 9.94292 185.862 9.94292 186.128 9.93081H187.048H187.945C188.199 9.95503 188.441 9.95503 188.696 9.93081C188.696 9.97925 188.696 10.0398 188.696 10.0882C188.696 10.1367 188.696 10.173 188.696 10.2215C188.696 10.4152 188.635 10.5121 188.502 10.5363C188.247 10.5606 187.993 10.6332 187.763 10.7664C187.63 10.8876 187.557 11.0571 187.569 11.2388V20.8305H187.351H187.145C187.061 20.8426 186.976 20.8426 186.891 20.8305C186.782 20.7699 186.685 20.6851 186.612 20.5883L180.157 12.4014V19.4741C180.145 19.5588 180.145 19.6557 180.157 19.7405C180.182 19.8132 180.23 19.8737 180.291 19.9222C180.388 19.9827 180.497 20.0312 180.606 20.0554C180.787 20.1038 180.969 20.1523 181.151 20.1765C181.199 20.1886 181.26 20.2128 181.296 20.2491C181.32 20.3339 181.32 20.4066 181.296 20.4914C181.296 20.564 181.296 20.6609 181.296 20.7699H180.521H179.685H178.777H177.978C177.978 20.7215 177.978 20.673 177.978 20.6246V20.4914C177.953 20.4187 177.953 20.3339 177.978 20.2613C178.014 20.2128 178.062 20.1886 178.123 20.1765C178.401 20.1523 178.668 20.0675 178.91 19.9343C179.043 19.8253 179.116 19.6557 179.104 19.4741V11.1782C179.104 11.0208 179.043 10.8754 178.934 10.7786C178.692 10.6575 178.426 10.5848 178.159 10.5606C178.014 10.5242 177.929 10.391 177.953 10.2457V10.173C177.953 10.1488 177.953 10.1125 177.953 10.0882V9.95503H178.401H178.825H179.552H180.145C180.351 9.93081 180.569 9.93081 180.775 9.95503C180.872 9.97925 180.957 10.0398 181.029 10.1125L186.479 16.9914" fill="#00588D"/>
<path d="M197.505 10.827V19.4499C197.492 19.5346 197.492 19.6315 197.505 19.7163C197.529 19.789 197.565 19.8616 197.626 19.9101C197.71 19.9706 197.807 20.007 197.904 20.0433C198.074 20.1038 198.243 20.1402 198.413 20.1523C198.558 20.1644 198.667 20.2855 198.667 20.4308C198.667 20.4308 198.667 20.5156 198.667 20.5762C198.679 20.6367 198.679 20.6852 198.667 20.7457H197.541H196.487H195.434H194.332C194.319 20.6852 194.319 20.6367 194.332 20.5762C194.332 20.5156 194.332 20.4672 194.332 20.4308C194.319 20.3703 194.319 20.3097 194.332 20.2492C194.332 20.2492 194.428 20.1644 194.55 20.1402C194.816 20.1159 195.07 20.0433 195.313 19.9222C195.434 19.789 195.482 19.6194 195.47 19.4499V10.827H194.029C193.762 10.827 193.496 10.8512 193.242 10.9239C193.036 10.9723 192.854 11.0692 192.697 11.2025C192.527 11.3357 192.382 11.5052 192.261 11.6869C192.115 11.9291 191.994 12.1713 191.873 12.4256C191.837 12.5225 191.74 12.5831 191.631 12.571C191.558 12.5831 191.473 12.5831 191.401 12.571L191.207 12.4983C191.28 12.244 191.352 12.0018 191.401 11.808C191.461 11.6142 191.498 11.4083 191.534 11.2025C191.534 10.9602 191.607 10.7301 191.631 10.5364C191.643 10.391 191.667 10.2457 191.716 10.1125C191.764 10.0156 191.873 9.95505 191.982 9.96716H192.697C193.048 9.96716 193.472 9.96716 193.98 9.96716H199.018C199.515 9.96716 199.939 9.96716 200.23 9.96716H200.956C201.065 9.95505 201.174 10.0156 201.223 10.1125C201.271 10.2457 201.295 10.391 201.295 10.5364C201.319 10.7665 201.356 10.9845 201.404 11.2025C201.404 11.4083 201.477 11.6021 201.525 11.808C201.574 12.0139 201.646 12.244 201.731 12.4983L201.525 12.571C201.453 12.5831 201.38 12.5831 201.307 12.571C201.198 12.571 201.089 12.5225 201.041 12.4256C200.932 12.1713 200.799 11.9291 200.653 11.6869C200.544 11.5052 200.399 11.3357 200.23 11.2025C200.072 11.0692 199.878 10.9723 199.672 10.9239C199.418 10.8512 199.164 10.827 198.909 10.827H197.468" fill="#00588D"/>
<path d="M91.9318 30.0225C91.9681 29.9256 92.0408 29.8408 92.1377 29.7924C92.3678 29.7197 92.6221 29.6955 92.8643 29.7076H93.2519H93.7968H94.3903H94.8989C94.8989 29.7561 94.8989 29.8166 94.8989 29.8651V29.9983C94.8989 30.1678 94.8384 30.2768 94.7173 30.3132C94.5477 30.3253 94.3782 30.3616 94.2086 30.4101C94.0996 30.4343 94.0027 30.4706 93.918 30.5312C93.8574 30.5796 93.809 30.628 93.7847 30.7007C93.7726 30.7734 93.7726 30.8582 93.7847 30.9308C93.7847 30.9308 93.7847 31.1609 93.7847 31.5485C93.7847 31.936 93.7847 32.4325 93.8574 33.0139C93.9301 33.5952 93.918 34.2249 93.9543 34.891C93.9906 35.5571 94.0148 36.2111 94.0512 36.8166C94.0875 37.4222 94.0512 37.955 94.136 38.4031C94.2207 38.8512 94.136 39.1177 94.136 39.2267C94.1238 39.3114 94.1238 39.4083 94.136 39.4931C94.1602 39.5658 94.2207 39.6384 94.2813 39.6869C94.3782 39.7474 94.475 39.7838 94.584 39.8201L95.0927 39.9291C95.2138 39.9291 95.2744 40.0502 95.2744 40.2319C95.2744 40.4135 95.2744 40.4014 95.2744 40.5225L94.2328 40.462C93.918 40.462 93.5667 40.462 93.1671 40.462C92.7674 40.462 92.4283 40.462 91.956 40.462L90.9266 40.5225C90.9266 40.4014 90.9266 40.3166 90.9266 40.2319C90.9024 40.1471 90.9024 40.0744 90.9266 39.9896C90.9266 39.9896 90.9993 39.9291 91.0356 39.9291C91.3384 39.9049 91.6411 39.808 91.9076 39.6505C92.0408 39.5294 92.1135 39.3599 92.1013 39.1782C92.1013 39.1782 92.1013 38.9602 92.1013 38.6453C92.1013 38.3305 92.1013 37.9429 92.1013 37.4343C92.1013 36.9256 92.1013 36.4533 92.0408 35.9083C91.9802 35.3633 91.9802 34.8426 91.956 34.3703C91.9318 33.8979 91.956 33.4741 91.8834 33.1592C91.8107 32.8443 91.8834 32.6021 91.8834 32.5173L88.5287 40.3409L88.3834 40.5588C88.347 40.6073 88.2865 40.6315 88.2259 40.6315H88.0321L84.2294 31.5121C84.2294 31.6575 84.2294 31.9481 84.2294 32.372C84.2294 32.7959 84.2294 33.3045 84.1567 33.8616C84.084 34.4187 84.1567 35 84.084 35.6177C84.0114 36.2353 84.0235 36.8287 84.0114 37.3374C83.9993 37.846 84.0114 38.2941 83.9508 38.6575C83.8903 39.0208 83.9508 39.2024 83.9508 39.2388C83.9387 39.3236 83.9387 39.4083 83.9508 39.4931C83.9629 39.5658 84.0114 39.6263 84.0719 39.6748C84.1567 39.7474 84.2657 39.7959 84.3747 39.8201L84.9076 39.9412C85.0287 39.9412 85.0892 40.0623 85.0892 40.244V40.3772C85.0771 40.4256 85.0771 40.4862 85.0892 40.5346L84.2657 40.4741C84.0114 40.4741 83.7571 40.4741 83.5148 40.4741C83.2726 40.4741 83.0183 40.4741 82.6913 40.4741L81.8072 40.5346C81.7951 40.4862 81.7951 40.4256 81.8072 40.3772V40.244C81.783 40.1713 81.783 40.0865 81.8072 40.0139C81.8436 39.9775 81.892 39.9533 81.9404 39.9412C82.1948 39.8928 82.4491 39.808 82.6792 39.6748C82.8366 39.5779 82.9335 39.4204 82.9456 39.2388C82.9456 39.1419 82.9456 38.8876 82.9456 38.4395C82.9456 37.9914 82.9456 37.4706 83.0304 36.8651C83.1152 36.2595 83.1031 35.654 83.1273 34.9395C83.1515 34.2249 83.1273 33.6194 83.2242 33.0381C83.3211 32.4568 83.2242 31.9602 83.2847 31.5606C83.3453 31.1609 83.2847 30.9671 83.2847 30.9429C83.2968 30.7855 83.2242 30.6402 83.1031 30.5433C82.8609 30.4222 82.5944 30.3495 82.3159 30.3253C82.1948 30.3253 82.1342 30.2042 82.1342 30.0104V29.8772C82.1221 29.8287 82.1221 29.7682 82.1342 29.7197H82.7276H83.4906H84.2294H84.7259H85.1861H85.4404C85.501 29.7319 85.5494 29.7682 85.5858 29.8166L85.6584 29.9498L88.7103 37.3011L91.9318 30.0225Z" fill="#00588D"/>
<path d="M101.586 39.1177C101.574 39.2024 101.574 39.2993 101.586 39.3841C101.61 39.4568 101.647 39.5294 101.707 39.5779C101.804 39.6384 101.913 39.6869 102.022 39.7111L102.579 39.8201C102.688 39.8201 102.737 39.9291 102.737 40.0986C102.737 40.1471 102.737 40.1955 102.737 40.2439C102.737 40.3045 102.737 40.3651 102.737 40.4135L101.61 40.3529C101.211 40.3529 100.859 40.3529 100.557 40.3529C100.254 40.3529 99.8784 40.3529 99.4787 40.3529L98.3646 40.4135C98.3524 40.3529 98.3524 40.3045 98.3646 40.2439V40.0986C98.3646 39.917 98.3645 39.8322 98.522 39.8201L99.0791 39.7111C99.1881 39.6869 99.285 39.6384 99.3818 39.5779C99.4424 39.5294 99.4787 39.4568 99.503 39.3841C99.5151 39.2993 99.5151 39.2024 99.503 39.1177V30.9066C99.5151 30.8097 99.5151 30.7249 99.503 30.628C99.4787 30.5554 99.4424 30.4948 99.3818 30.4464C99.285 30.3858 99.1881 30.3374 99.0791 30.301C98.8974 30.2526 98.7158 30.2284 98.522 30.2042C98.413 30.2042 98.3646 30.0709 98.3646 29.9256V29.7682C98.3524 29.7076 98.3524 29.6592 98.3646 29.5986H99.4787C99.8784 29.5986 100.23 29.5986 100.557 29.5986C100.884 29.5986 101.211 29.5986 101.61 29.5986H102.737C102.737 29.5986 102.737 29.7076 102.737 29.7682C102.737 29.8166 102.737 29.8772 102.737 29.9256C102.737 30.0709 102.737 30.1678 102.579 30.2042C102.385 30.2163 102.204 30.2526 102.022 30.301C101.913 30.3374 101.804 30.3858 101.707 30.4464C101.647 30.4948 101.61 30.5554 101.586 30.628C101.574 30.7249 101.574 30.8097 101.586 30.9066V39.1177Z" fill="#00588D"/>
<path d="M114.603 40.2439L113.864 40.3529L113.149 40.4498L112.35 40.5104H111.333C110.473 40.5225 109.613 40.4014 108.79 40.1228C107.457 39.6626 106.416 38.5969 105.992 37.2526C105.762 36.5138 105.653 35.7509 105.665 34.9879C105.665 34.3218 105.774 33.6678 105.992 33.0381C106.44 31.6817 107.409 30.5796 108.693 29.9619C109.456 29.6107 110.279 29.4412 111.115 29.4654C111.769 29.4654 112.411 29.5138 113.053 29.6107C113.682 29.6955 114.312 29.8166 114.93 29.974C114.93 30.2647 114.99 30.6401 115.063 31.1003C115.111 31.5484 115.196 32.0086 115.305 32.4446H115.111H114.93C114.857 32.4689 114.772 32.4689 114.7 32.4446C114.639 32.4083 114.591 32.3477 114.578 32.2751C114.433 31.6211 114.021 31.064 113.452 30.7249C112.847 30.4343 112.181 30.2889 111.502 30.3131C110.969 30.301 110.437 30.3979 109.94 30.6159C109.492 30.8097 109.104 31.1125 108.802 31.4879C108.487 31.8875 108.257 32.3477 108.123 32.8443C107.954 33.4256 107.869 34.0311 107.881 34.6367C107.869 35.3149 107.966 35.9931 108.148 36.6471C108.293 37.2163 108.559 37.7612 108.911 38.2336C109.238 38.6574 109.649 39.0086 110.122 39.263C110.655 39.5173 111.236 39.6505 111.829 39.6384C112.035 39.6505 112.241 39.6505 112.447 39.6384L113.004 39.5294V37.1073C113.04 36.8772 112.944 36.6349 112.762 36.4896C112.495 36.3322 112.193 36.2474 111.89 36.2353C111.817 36.2232 111.745 36.1626 111.72 36.09C111.684 36.0294 111.66 35.9567 111.66 35.8841C111.66 35.8841 111.66 35.8114 111.66 35.7387C111.66 35.6661 111.66 35.6298 111.66 35.5934H112.217H112.835H115.063H115.656H116.141C116.141 35.654 116.141 35.7024 116.141 35.763V35.8841C116.165 35.9567 116.165 36.0415 116.141 36.1142C116.104 36.1626 116.056 36.199 115.995 36.2232C115.741 36.2353 115.487 36.308 115.269 36.4291C115.123 36.5502 115.051 36.7318 115.063 36.9256V39.7716C115.063 39.8564 115.039 39.9533 114.978 40.0138C114.978 40.0865 114.772 40.1349 114.518 40.1834" fill="#00588D"/>
<path d="M122.767 34.7578C123.082 34.7578 123.385 34.7215 123.688 34.6609C123.942 34.6004 124.184 34.4792 124.39 34.3218C124.596 34.1523 124.741 33.9343 124.838 33.692C124.959 33.3651 125.008 33.026 124.996 32.6869C125.032 32.1177 124.862 31.5485 124.511 31.0882C124.051 30.6401 123.409 30.4222 122.767 30.4948H122.283V34.7578H122.767ZM122.985 35.5692H122.283V38.9965C122.259 39.2267 122.392 39.4446 122.598 39.5294C122.949 39.6747 123.312 39.7595 123.688 39.7837C123.845 39.7837 123.918 39.917 123.918 40.1107C123.93 40.2076 123.93 40.3166 123.918 40.4135L122.707 40.3529C122.234 40.3529 121.714 40.3529 121.157 40.3529C120.6 40.3529 120.382 40.3529 120.018 40.3529L119.001 40.4135C118.989 40.3651 118.989 40.3045 119.001 40.2561V40.135C119.001 39.9412 119.061 39.8443 119.183 39.8201L119.74 39.699C119.861 39.6747 119.97 39.6263 120.067 39.5657C120.139 39.5173 120.188 39.4568 120.224 39.3841C120.236 39.2993 120.236 39.2024 120.224 39.1177V30.9066C120.236 30.7128 120.151 30.5311 119.994 30.4343C119.703 30.2889 119.388 30.2163 119.074 30.2042C119.025 30.1799 118.977 30.1436 118.952 30.0952C118.904 30.0346 118.88 29.9498 118.892 29.8772V29.7197C118.88 29.6834 118.88 29.635 118.892 29.5986H119.958C120.345 29.5986 120.709 29.5986 121.023 29.5986H123.446C123.978 29.5865 124.499 29.6592 125.008 29.8166C125.444 29.9377 125.856 30.1436 126.219 30.4222C126.534 30.6765 126.788 30.9914 126.958 31.3547C127.127 31.7301 127.224 32.154 127.212 32.5658C127.212 33.135 127.03 33.692 126.679 34.1401C126.304 34.6367 125.795 35 125.214 35.218L127.781 38.9723C127.951 39.2267 128.181 39.4325 128.459 39.5657C128.689 39.6626 128.932 39.7474 129.174 39.808C129.222 39.8201 129.271 39.8443 129.307 39.8806C129.331 39.9533 129.331 40.0138 129.307 40.0865V40.2318C129.319 40.2924 129.319 40.3408 129.307 40.4014H128.798H128.12H127.418H126.837C126.582 40.3893 126.34 40.2924 126.146 40.1107C125.892 39.8927 125.662 39.6263 125.468 39.3478L122.985 35.5692Z" fill="#00588D"/>
<path d="M137.726 35.8962L136.333 32.263L134.916 35.8962H137.726ZM138.041 36.7197H134.601L133.753 38.9966C133.717 39.0571 133.693 39.1177 133.681 39.1782C133.681 39.2267 133.681 39.2751 133.681 39.3235C133.681 39.4447 133.753 39.5536 133.85 39.6263C134.068 39.7232 134.311 39.7959 134.553 39.8201C134.698 39.8201 134.783 39.9412 134.783 40.135C134.795 40.2318 134.795 40.3166 134.783 40.4135L133.85 40.353C133.523 40.353 133.196 40.353 132.882 40.353H132.191L131.392 40.4256C131.38 40.3772 131.38 40.3166 131.392 40.2682V40.1471C131.392 39.9412 131.465 39.8201 131.61 39.808C131.864 39.7716 132.106 39.699 132.337 39.6021C132.494 39.5173 132.627 39.372 132.688 39.2024L136.636 29.7682C136.696 29.5986 136.854 29.4896 137.023 29.4896H137.108H137.29L141.238 39.1782C141.311 39.3478 141.444 39.4689 141.613 39.5415C141.807 39.6263 142.013 39.6869 142.219 39.7111C142.376 39.7353 142.485 39.8806 142.473 40.0381C142.485 40.135 142.485 40.244 142.473 40.3408L141.444 40.2803C141.105 40.2803 140.778 40.2803 140.487 40.2803H139.93H139.264H138.574H138.016C138.004 40.2318 138.004 40.1713 138.016 40.1229V40.0017C138.016 39.917 138.029 39.8443 138.077 39.7716C138.101 39.7353 138.15 39.699 138.198 39.6869C138.416 39.6505 138.622 39.59 138.828 39.4931C138.949 39.4447 139.034 39.3114 139.034 39.1782C139.046 39.0934 139.046 39.0208 139.034 38.936L138.041 36.7197Z" fill="#00588D"/>
<path d="M148.853 30.4948V39.1176C148.841 39.2024 148.841 39.2993 148.853 39.3841C148.877 39.4567 148.913 39.5294 148.974 39.5778C149.059 39.6384 149.155 39.6868 149.252 39.7111L149.761 39.8201C149.931 39.8201 150.015 39.9412 150.015 40.0986C150.015 40.256 150.015 40.1834 150.015 40.2439C150.015 40.3045 150.015 40.365 150.015 40.4135L148.889 40.3529C148.489 40.3529 148.138 40.3529 147.835 40.3529C147.533 40.3529 147.169 40.3529 146.782 40.3529L145.668 40.4135C145.655 40.3529 145.655 40.3045 145.668 40.2439C145.668 40.1955 145.668 40.1471 145.668 40.0986C145.643 40.0381 145.643 39.9654 145.668 39.9048C145.668 39.9048 145.764 39.8201 145.886 39.8079C146.152 39.7958 146.418 39.7111 146.649 39.5778C146.77 39.4567 146.818 39.2872 146.806 39.1176V30.4948H145.365C145.098 30.4948 144.832 30.519 144.578 30.5796C144.372 30.6401 144.19 30.737 144.02 30.8581C143.851 31.0035 143.718 31.173 143.597 31.3547C143.475 31.5605 143.342 31.8028 143.209 32.0813C143.173 32.1782 143.076 32.2387 142.967 32.2266H142.737L142.543 32.154C142.616 31.8875 142.688 31.6574 142.737 31.4515C142.797 31.2578 142.834 31.064 142.87 30.8581C142.87 30.6038 142.943 30.3858 142.967 30.192C142.979 30.0467 143.003 29.9014 143.052 29.756C143.1 29.6592 143.197 29.5986 143.306 29.6107H144.02C144.384 29.6107 144.808 29.6107 145.316 29.6107H150.354C150.851 29.6107 151.275 29.6107 151.626 29.6107H152.353C152.462 29.6107 152.571 29.6592 152.619 29.756C152.668 29.9014 152.692 30.0467 152.692 30.192C152.704 30.4221 152.74 30.6401 152.801 30.8581C152.801 31.0519 152.873 31.2578 152.922 31.4515C152.97 31.6453 153.043 31.8875 153.128 32.154L152.922 32.2266H152.704C152.595 32.2266 152.486 32.1782 152.437 32.0813C152.328 31.827 152.195 31.5848 152.05 31.3547C151.941 31.1609 151.796 31.0035 151.626 30.8581C151.456 30.7249 151.275 30.6401 151.069 30.5796C150.815 30.519 150.56 30.4948 150.306 30.4948H148.853Z" fill="#00588D"/>
<path d="M158.824 39.1177C158.812 39.2024 158.812 39.2993 158.824 39.3841C158.848 39.4568 158.897 39.5294 158.957 39.5779C159.054 39.6384 159.151 39.6869 159.26 39.7111L159.817 39.8201C159.926 39.8201 159.974 39.9291 159.974 40.0986V40.2439C159.974 40.3045 159.974 40.3529 159.974 40.4135L158.848 40.3529C158.448 40.3529 158.097 40.3529 157.794 40.3529C157.492 40.3529 157.116 40.3529 156.729 40.3529L155.615 40.4135C155.602 40.3529 155.602 40.3045 155.615 40.2439V40.0986C155.615 39.917 155.615 39.8322 155.772 39.8201L156.329 39.7111C156.438 39.6869 156.535 39.6384 156.632 39.5779C156.692 39.5294 156.741 39.4568 156.765 39.3841C156.777 39.2993 156.777 39.2024 156.765 39.1177V30.9066C156.777 30.8097 156.777 30.7249 156.765 30.628C156.741 30.5554 156.692 30.4948 156.632 30.4464C156.535 30.3858 156.438 30.3374 156.329 30.301C156.147 30.2526 155.966 30.2284 155.772 30.2042C155.663 30.2042 155.615 30.0709 155.615 29.9256V29.7682C155.602 29.7076 155.602 29.6592 155.615 29.5986H156.729C157.116 29.5986 157.467 29.5986 157.794 29.5986C158.121 29.5986 158.448 29.5986 158.848 29.5986H159.974C159.974 29.6592 159.974 29.7076 159.974 29.7682V29.9256C159.974 30.0709 159.974 30.1678 159.817 30.2042C159.623 30.2284 159.442 30.2526 159.26 30.301C159.151 30.3374 159.054 30.3858 158.957 30.4464C158.897 30.4827 158.848 30.5554 158.824 30.628C158.812 30.7249 158.812 30.8097 158.824 30.9066V39.1177Z" fill="#00588D"/>
<path d="M168.594 39.7111C169.018 39.7111 169.429 39.6021 169.805 39.4083C170.18 39.2024 170.507 38.9118 170.761 38.5727C171.04 38.2093 171.246 37.7976 171.379 37.3616C171.537 36.8772 171.609 36.3564 171.609 35.8477C171.609 35.1211 171.537 34.3945 171.379 33.692C171.258 33.0865 171.028 32.4931 170.713 31.9602C170.434 31.4879 170.035 31.1003 169.575 30.8097C169.102 30.5311 168.557 30.3858 168 30.3979C167.613 30.3979 167.237 30.4827 166.886 30.6522C166.523 30.8218 166.196 31.0761 165.929 31.391C165.639 31.7543 165.421 32.1661 165.275 32.6021C165.106 33.1107 165.033 33.6315 165.033 34.1643C165.033 34.9152 165.106 35.6661 165.275 36.4048C165.409 37.0346 165.639 37.628 165.953 38.1851C166.22 38.6695 166.607 39.0813 167.068 39.3962C167.54 39.6505 168.061 39.7595 168.594 39.7111ZM162.805 35.0363C162.805 34.2976 162.95 33.5709 163.241 32.8927C163.81 31.5605 164.864 30.5069 166.196 29.9498C166.874 29.6592 167.613 29.5017 168.351 29.5138C169.102 29.5017 169.841 29.647 170.543 29.9256C171.197 30.1799 171.803 30.5796 172.3 31.0761C172.82 31.5727 173.232 32.1661 173.511 32.8201C173.801 33.5225 173.947 34.2733 173.934 35.0363C173.934 35.7751 173.789 36.5138 173.498 37.192C173.22 37.8581 172.808 38.4515 172.287 38.9481C171.779 39.4567 171.185 39.8685 170.519 40.1592C169.841 40.4498 169.102 40.5951 168.364 40.5951C167.613 40.6073 166.862 40.4619 166.159 40.1834C165.505 39.9291 164.9 39.5294 164.403 39.0329C163.895 38.5363 163.483 37.9429 163.192 37.2889C162.914 36.5623 162.793 35.7751 162.829 35L162.805 35.0363Z" fill="#00588D"/>
<path d="M185.244 36.756V30.9308C185.256 30.737 185.171 30.5432 185.002 30.4342C184.735 30.301 184.433 30.2163 184.13 30.2041C183.997 30.1678 183.912 30.0346 183.924 29.8893V29.756C183.924 29.7076 183.924 29.647 183.924 29.5986L184.735 29.6592H186.552L187.303 29.5986C187.303 29.647 187.303 29.7076 187.303 29.756C187.303 29.8045 187.303 29.8408 187.303 29.8893C187.303 30.0709 187.23 30.1799 187.109 30.2041C186.843 30.2163 186.588 30.301 186.37 30.4342C186.237 30.5554 186.164 30.7249 186.176 30.9066V40.4862H185.946H185.74C185.656 40.4862 185.571 40.4619 185.498 40.4256C185.389 40.3772 185.292 40.2924 185.22 40.1955L178.765 31.9965V39.0813C178.753 39.1661 178.753 39.263 178.765 39.3477C178.777 39.4204 178.825 39.4931 178.898 39.5294C178.995 39.59 179.092 39.6384 179.201 39.6626L179.758 39.7837C179.806 39.7958 179.855 39.8201 179.891 39.8564C179.939 39.9291 179.964 40.0138 179.952 40.0986C179.964 40.1955 179.964 40.2803 179.952 40.3772L179.189 40.3166C178.946 40.3166 178.668 40.3166 178.353 40.3166C178.038 40.3166 177.723 40.3166 177.445 40.3166L176.645 40.3772C176.633 40.3287 176.633 40.2682 176.645 40.2197V40.0986C176.621 40.0259 176.621 39.9412 176.645 39.8685C176.682 39.8201 176.73 39.7958 176.791 39.7837C177.069 39.7474 177.336 39.6747 177.578 39.5415C177.711 39.4204 177.784 39.2509 177.772 39.0813V30.7855C177.784 30.628 177.711 30.4827 177.59 30.3858C177.36 30.2526 177.093 30.1678 176.815 30.1678C176.682 30.1678 176.621 30.0225 176.621 29.8529V29.7803C176.621 29.7439 176.621 29.7197 176.621 29.6834V29.5623H177.057H177.481H178.22H178.813C179.019 29.5381 179.225 29.5381 179.431 29.5623C179.54 29.5865 179.625 29.6349 179.697 29.7197L185.135 36.5986" fill="#00588D"/>
<path d="M87.1975 60.1903C86.374 60.2145 85.5505 60.0571 84.7754 59.7543C84.1214 59.4879 83.5401 59.0761 83.0678 58.5432C82.6076 58.0346 82.2685 57.4412 82.0626 56.7872C81.8325 56.0848 81.7114 55.3581 81.7235 54.6194C81.7235 53.9533 81.8325 53.2993 82.0505 52.6695C82.2685 52.0156 82.6197 51.41 83.0799 50.8893C83.5885 50.3322 84.1941 49.8962 84.8844 49.5934C85.72 49.2422 86.6162 49.0727 87.5124 49.0969C88.0332 49.0969 88.5539 49.1332 89.0747 49.2059C89.5591 49.2907 90.092 49.3996 90.6612 49.5571C90.6612 49.8477 90.6612 50.2232 90.7823 50.6834C90.855 51.1315 90.9397 51.5796 91.0609 52.0277H90.855C90.7944 52.0398 90.7218 52.0398 90.6612 52.0277C90.5885 52.0398 90.5038 52.0398 90.4311 52.0277C90.3705 51.9913 90.3221 51.9308 90.31 51.8581C90.2131 51.5432 90.0678 51.2284 89.8982 50.9498C89.765 50.7076 89.5833 50.5138 89.3532 50.3564C89.1231 50.199 88.8688 50.1021 88.6024 50.0415C88.2754 49.9689 87.9484 49.9325 87.6093 49.9325C87.0764 49.9204 86.5436 50.0294 86.047 50.2474C85.5989 50.4291 85.2114 50.7318 84.9086 51.1073C84.5816 51.5069 84.3394 51.9792 84.2062 52.4758C84.0487 53.0571 83.964 53.6626 83.9761 54.2682C83.964 54.9343 84.0609 55.6003 84.2546 56.2422C84.4242 56.8235 84.6785 57.3806 85.0297 57.8772C85.3567 58.3131 85.7685 58.6644 86.2408 58.9187C86.701 59.173 87.2096 59.2941 87.7304 59.2941C88.1058 59.3062 88.4934 59.2578 88.8567 59.173C89.1474 59.1003 89.4138 58.9792 89.656 58.7976C89.8861 58.628 90.092 58.41 90.2373 58.1557C90.4069 57.865 90.5522 57.5502 90.6733 57.2353C90.6975 57.1626 90.746 57.09 90.8186 57.0415C90.8913 57.0294 90.9761 57.0294 91.0487 57.0415C91.1214 57.0294 91.182 57.0294 91.2546 57.0415H91.4605C91.3757 57.2474 91.3152 57.4533 91.2546 57.6713C91.182 57.9135 91.1093 58.1557 91.0245 58.3979C90.9397 58.6401 90.8792 58.8945 90.8186 59.1367C90.7581 59.3789 90.7096 59.6211 90.6733 59.8512C90.1283 59.9481 89.5833 60.0208 89.0263 60.0571C88.4692 60.0571 87.8152 60.1298 87.1975 60.1298" fill="#00588D"/>
<path d="M99.6608 59.3304C100.085 59.3304 100.496 59.2335 100.872 59.0277C101.247 58.8339 101.574 58.5432 101.829 58.2041C102.107 57.8408 102.313 57.429 102.458 56.9931C102.604 56.4965 102.676 55.9879 102.676 55.4792C102.676 54.7526 102.604 54.0259 102.458 53.3114C102.337 52.7059 102.107 52.1245 101.78 51.5917C101.502 51.1315 101.114 50.7318 100.654 50.4412C100.169 50.1505 99.6245 50.0052 99.0674 50.0173C98.6798 50.0294 98.3044 50.1142 97.9532 50.2716C97.5899 50.4533 97.2629 50.6955 97.0086 51.0104C96.7179 51.3737 96.4878 51.7733 96.3546 52.2214C96.185 52.718 96.1003 53.2508 96.1124 53.7837C96.1003 54.5346 96.185 55.2854 96.3425 56.0242C96.4757 56.654 96.7058 57.2474 97.0328 57.8045C97.2992 58.2889 97.6746 58.7007 98.1349 59.0156C98.583 59.2941 99.1037 59.4394 99.6245 59.4273L99.6608 59.3304ZM93.8477 54.7647C93.8477 54.0259 93.993 53.2993 94.2836 52.6211C94.5622 51.955 94.974 51.3616 95.4947 50.865C95.9913 50.3564 96.5968 49.9446 97.2508 49.654C97.929 49.3633 98.6677 49.218 99.4065 49.218C100.157 49.2059 100.896 49.3512 101.599 49.6297C102.253 49.8841 102.858 50.2716 103.367 50.7681C103.875 51.2647 104.287 51.8702 104.578 52.5242C104.868 53.2266 105.002 53.9775 105.002 54.7405C105.002 55.4792 104.856 56.218 104.566 56.8962C104.275 57.5502 103.863 58.1436 103.355 58.6401C102.846 59.1488 102.252 59.5605 101.586 59.8512C100.896 60.1418 100.157 60.2872 99.4186 60.2872C98.6677 60.2872 97.929 60.154 97.2266 59.8754C95.8944 59.3425 94.8407 58.301 94.3079 56.9809C94.0051 56.2543 93.8598 55.455 93.884 54.6678L93.8477 54.7647Z" fill="#00588D"/>
<path d="M117.368 55.9394C117.368 56.5208 117.308 57.09 117.175 57.6592C117.054 58.1557 116.811 58.6159 116.484 59.0035C116.133 59.4031 115.685 59.7059 115.188 59.8754C114.534 60.1055 113.844 60.2145 113.154 60.1903C112.355 60.2145 111.567 60.1055 110.804 59.8633C110.272 59.6817 109.799 59.3789 109.424 58.9671C109.109 58.5796 108.879 58.1194 108.782 57.6349C108.673 57.1021 108.612 56.5571 108.612 56.0121V50.6107C108.624 50.4291 108.552 50.2474 108.406 50.1384C108.128 50.0052 107.837 49.9325 107.534 49.9083C107.413 49.9083 107.353 49.7872 107.353 49.6055V49.3996C107.341 49.3391 107.341 49.2907 107.353 49.2301L108.358 49.2907H109.569H110.78L111.894 49.2301V49.3996V49.5329C111.894 49.7145 111.894 49.8114 111.713 49.8356C111.398 49.8599 111.095 49.9325 110.804 50.0657C110.647 50.1626 110.562 50.3443 110.574 50.5381V55.6246C110.514 56.5329 110.732 57.4412 111.204 58.2163C111.737 58.8581 112.548 59.1851 113.372 59.1003C114.208 59.1851 115.031 58.8823 115.612 58.2647C116.121 57.4654 116.351 56.5208 116.266 55.5761V50.6107C116.278 50.4291 116.206 50.2474 116.048 50.1384C115.77 50.0052 115.479 49.9325 115.176 49.9083C115.043 49.9083 114.983 49.7751 114.983 49.6055V49.3996C114.983 49.3996 114.983 49.2907 114.983 49.2301L115.867 49.3028H117.659C117.926 49.3028 118.192 49.2785 118.458 49.2301C118.458 49.2907 118.458 49.3391 118.458 49.3996C118.458 49.4481 118.458 49.4844 118.458 49.5329C118.458 49.7024 118.386 49.8114 118.265 49.8356C117.974 49.8477 117.683 49.9204 117.429 50.0657C117.272 50.1626 117.187 50.3443 117.199 50.5381V55.9152" fill="#00588D"/>
<path d="M130.049 56.4118V50.6107C130.061 50.4048 129.976 50.2111 129.806 50.1021C129.528 49.981 129.237 49.8962 128.935 49.872C128.789 49.872 128.717 49.7387 128.717 49.5692V49.3996C128.704 49.3391 128.704 49.2907 128.717 49.2301C128.983 49.2301 129.262 49.2906 129.516 49.3028H131.332C131.587 49.3028 131.841 49.2785 132.095 49.2301C132.095 49.2907 132.095 49.3391 132.095 49.3996V49.5329C132.095 49.7145 132.035 49.8114 131.902 49.8356C131.647 49.8599 131.393 49.9446 131.163 50.0657C131.03 50.1868 130.957 50.3685 130.969 50.5502V60.1298H130.751H130.545C130.46 60.1298 130.376 60.1055 130.303 60.0692C130.194 60.0086 130.097 59.936 130.024 59.827L123.569 51.6401V58.7128C123.557 58.8097 123.557 58.8945 123.569 58.9913C123.594 59.064 123.642 59.1246 123.703 59.1609C123.8 59.2214 123.909 59.2699 124.018 59.2941C124.199 59.3547 124.381 59.391 124.563 59.4273C124.623 59.4273 124.672 59.4516 124.708 59.5C124.756 59.5605 124.781 59.6453 124.768 59.7301C124.781 59.827 124.781 59.9118 124.768 60.0086H123.993C123.715 59.9965 123.436 59.9965 123.158 60.0086C122.843 60.0086 122.54 60.0086 122.249 60.0086H121.462C121.45 59.9602 121.45 59.9118 121.462 59.8633V59.7301C121.462 59.6453 121.474 59.5727 121.523 59.5C121.559 59.4637 121.608 59.4394 121.656 59.4273C121.935 59.391 122.201 59.3062 122.443 59.173C122.576 59.064 122.649 58.8945 122.637 58.7128V50.4896C122.649 50.3322 122.589 50.1868 122.467 50.09C122.225 49.9567 121.971 49.872 121.692 49.8599C121.559 49.8599 121.499 49.7266 121.499 49.5571V49.4844C121.499 49.4481 121.499 49.4239 121.499 49.3875V49.2543H121.947H122.371H123.097H123.703C123.909 49.2301 124.114 49.2301 124.32 49.2543C124.417 49.2906 124.514 49.3391 124.587 49.4118L130.024 56.2906" fill="#00588D"/>
<path d="M140.217 60.1903C139.393 60.2145 138.57 60.0571 137.795 59.7543C137.141 59.4879 136.559 59.0761 136.099 58.5432C135.639 58.0346 135.288 57.4412 135.082 56.7872C134.864 56.0848 134.743 55.3581 134.755 54.6194C134.755 53.9533 134.864 53.2993 135.082 52.6695C135.3 52.0156 135.651 51.41 136.111 50.8893C136.62 50.3322 137.225 49.8962 137.916 49.5934C138.739 49.2422 139.635 49.0727 140.532 49.0969C141.052 49.0969 141.573 49.1332 142.094 49.2059C142.627 49.2907 143.16 49.4118 143.68 49.5571C143.68 49.8477 143.741 50.2232 143.814 50.6834C143.874 51.1315 143.971 51.5917 144.092 52.0277H143.874C143.814 52.0398 143.741 52.0398 143.68 52.0277C143.608 52.0398 143.535 52.0398 143.462 52.0277C143.39 51.9913 143.353 51.9308 143.341 51.8581C143.232 51.5432 143.099 51.2405 142.929 50.9498C142.784 50.7076 142.602 50.5138 142.372 50.3564C142.154 50.199 141.9 50.1021 141.634 50.0415C141.307 49.9689 140.968 49.9325 140.628 49.9325C140.096 49.9204 139.563 50.0294 139.066 50.2474C138.618 50.4412 138.231 50.7318 137.928 51.1073C137.613 51.519 137.371 51.9792 137.237 52.4758C137.068 53.0571 136.983 53.6626 136.995 54.2682C136.995 54.9343 137.092 55.6003 137.286 56.2422C137.443 56.8235 137.71 57.3564 138.073 57.8408C138.4 58.2768 138.812 58.628 139.284 58.8823C139.744 59.1367 140.253 59.2699 140.774 59.2578C141.149 59.2699 141.525 59.2215 141.888 59.1367C142.179 59.064 142.457 58.9308 142.699 58.7612C142.929 58.5796 143.123 58.3616 143.269 58.1194C143.438 57.8287 143.583 57.5138 143.705 57.199C143.741 57.1142 143.789 57.0536 143.862 57.0052C143.935 56.9931 144.007 56.9931 144.08 57.0052C144.153 56.9931 144.213 56.9931 144.286 57.0052H144.492L144.286 57.6349L144.068 58.3616C143.983 58.6038 143.923 58.8581 143.862 59.1003C143.801 59.3426 143.753 59.5848 143.705 59.8149C143.16 59.9118 142.615 59.9844 142.07 60.0208C141.513 60.0208 140.859 60.0934 140.229 60.0934" fill="#00588D"/>
<path d="M150.511 58.7734C150.499 58.8703 150.499 58.955 150.511 59.0519C150.524 59.1246 150.572 59.1972 150.645 59.2336C150.729 59.3062 150.838 59.3547 150.947 59.3789L151.504 59.4879C151.613 59.4879 151.662 59.5969 151.662 59.7543C151.662 59.8028 151.662 59.8633 151.662 59.9118C151.662 59.9723 151.662 60.0329 151.662 60.0692H150.536H149.482H148.416H147.302C147.29 60.0208 147.29 59.9602 147.302 59.9118V59.7543C147.302 59.5848 147.302 59.4879 147.459 59.4879L148.017 59.3789C148.126 59.3547 148.235 59.3062 148.319 59.2336C148.38 59.1851 148.428 59.1246 148.453 59.0519C148.465 58.955 148.465 58.8703 148.453 58.7734V50.6107C148.465 50.526 148.465 50.4291 148.453 50.3443C148.428 50.2716 148.38 50.2111 148.319 50.1626C148.235 50.09 148.126 50.0415 148.017 50.0173L147.459 49.9083C147.351 49.9083 147.302 49.7872 147.302 49.6298V49.3997C147.29 49.3391 147.29 49.2786 147.302 49.218L148.416 49.2786H149.482H150.536L151.662 49.218C151.662 49.2786 151.662 49.3391 151.662 49.3997C151.662 49.4481 151.662 49.4966 151.662 49.545C151.662 49.7024 151.662 49.7993 151.504 49.8235L150.947 49.9325C150.838 49.9568 150.729 50.0052 150.645 50.0779C150.572 50.1142 150.524 50.1869 150.511 50.2595C150.499 50.3443 150.499 50.4412 150.511 50.526V58.737" fill="#00588D"/>
<path d="M158.034 58.5917C158.034 58.8218 158.179 58.9793 158.47 59.0519C158.954 59.1488 159.439 59.1973 159.935 59.173H160.553C160.819 59.1851 161.073 59.1609 161.328 59.0883C161.522 59.0277 161.715 58.9308 161.861 58.7855C162.03 58.628 162.176 58.4464 162.285 58.2405C162.418 57.9741 162.551 57.7076 162.648 57.4291C162.684 57.3322 162.793 57.2838 162.89 57.2959C162.963 57.2838 163.023 57.2838 163.096 57.2959L163.326 57.3928C163.229 57.744 163.157 58.1315 163.084 58.5312C163.011 58.9308 162.951 59.3426 162.89 59.7422C162.89 59.8755 162.89 59.9481 162.793 59.9844C162.733 59.9966 162.66 59.9966 162.599 59.9844H162.236H161.715H161.146H160.65H156.932H155.842H154.74C154.727 59.9239 154.727 59.8754 154.74 59.8149V59.6575C154.74 59.5 154.74 59.4031 154.897 59.4031C155.2 59.3547 155.503 59.2699 155.793 59.1488C155.975 59.064 156.072 58.8824 156.06 58.6886V50.6107C156.072 50.5139 156.072 50.4291 156.06 50.3322C156.035 50.2595 155.987 50.199 155.926 50.1505C155.842 50.0779 155.733 50.0294 155.624 50.0052L155.079 49.8962C154.97 49.8962 154.909 49.7751 154.909 49.6177V49.3997C154.897 49.3391 154.897 49.2786 154.909 49.218L156.023 49.2786H157.065H158.203H158.845H159.426C159.426 49.3391 159.426 49.3997 159.426 49.4602C159.426 49.5087 159.426 49.5571 159.426 49.6056C159.426 49.763 159.366 49.8599 159.257 49.8841C158.93 49.9204 158.615 50.0052 158.324 50.1384C158.155 50.2474 158.07 50.4291 158.082 50.6229V58.6159" fill="#00588D"/>
<path d="M41.8683 8.58651L33.2818 17.1609L24.6953 8.58651L33.2818 0L41.8683 8.58651Z" fill="#00588D"/>
<path d="M24.6914 8.58654L22.79 20.5883L10.8125 18.6869L12.7018 6.69726L24.6914 8.58654Z" fill="#79A7CF"/>
<path d="M5.51038 35.0242L0 24.2093L10.8149 18.699L16.3253 29.5138L5.51038 35.0242Z" fill="#00588D"/>
<path d="M5.5303 35.0121L16.3331 40.5104L10.8348 51.3374L0.0078125 45.827L5.5303 35.0121Z" fill="#79A7CF"/>
<path d="M10.8359 51.3495L22.8256 49.4481L24.7269 61.4377L12.7373 63.3391L10.8359 51.3495Z" fill="#00588D"/>
<path d="M41.9062 61.4377L43.7955 49.4481L55.7851 51.3495L53.8959 63.3391L41.9062 61.4377Z" fill="#00588D"/>
<path d="M55.7838 51.3374L50.2734 40.5225L61.0883 35.0121L66.5987 45.827L55.7838 51.3374Z" fill="#79A7CF"/>
<path d="M61.0649 35.0242L50.25 29.5138L55.7604 18.699L66.5753 24.2093L61.0649 35.0242Z" fill="#00588D"/>
<path d="M55.7461 18.6869L43.7565 20.5883L41.8672 8.59865L53.8568 6.69726L55.7461 18.6869Z" fill="#79A7CF"/>
<path d="M24.7539 61.4135L33.3283 52.827L41.9148 61.4135L33.3283 70L24.7539 61.4135Z" fill="#79A7CF"/>
</svg>
